<svg width="52" height="50" viewBox="0 0 52 50" fill="none" xmlns="http://www.w3.org/2000/svg">
<path d="M14.5 17C13.6716 17 13 16.1046 13 15C13 13.8954 13.6716 13 14.5 13C15.3284 13 16 13.8954 16 15C16 16.1046 15.3284 17 14.5 17Z" fill="#FFF9D5"/>
<path d="M48.9999 14.5841C44.0289 6.85268 38.5257 3.42948 35.5958 2.02133C33.3129 0.924035 29.2127 -0.131637 28.25 5.69444C27.7549 8.69699 26.7043 14.0641 29.1459 23.2257C32.2369 34.8204 39.5945 42.2056 42.651 45.4423C45.9017 48.887 53.8481 56.5729 53.9617 56.037C54.4516 56.3464 57.3804 45.4243 57.3372 40.4267C57.2854 34.2688 55.6086 24.8653 48.9994 14.5862L48.9999 14.5841Z" fill="#FF7436"/>
<path d="M51.4554 46.6049C51.5441 46.6272 51.6387 46.6264 51.7333 46.5988C52.0105 46.5163 52.1677 46.2243 52.0851 45.9481C48.3955 33.6135 40.4741 14.6097 35.3994 7.64075C35.2294 7.4075 34.901 7.35608 34.6669 7.5256C34.4329 7.69512 34.3817 8.02049 34.5517 8.25374C39.5664 15.1404 47.4137 33.9933 51.0808 46.2484C51.1357 46.4302 51.2822 46.5612 51.4554 46.6049Z" fill="#FFE9AC"/>
<path d="M34.5697 15.0919C36.1518 15.4906 37.8729 15.3417 39.3299 14.6133C41.1966 13.6788 42.2718 11.9938 42.2836 9.99143C42.285 9.70274 42.0527 9.46718 41.7631 9.4659C41.4735 9.46462 41.2392 9.69686 41.2357 9.98501C41.2262 11.5801 40.3602 12.9281 38.8592 13.6791C36.9746 14.6224 34.5638 14.416 32.8611 13.1646C32.6281 12.9938 32.3008 13.0435 32.1294 13.2759C31.958 13.5083 32.0078 13.8346 32.2409 14.0053C32.9379 14.5171 33.7333 14.8811 34.5697 15.0919Z" fill="#FFE9AC"/>
<path d="M44.2105 38.8124C45.9806 39.2585 48.1349 39.006 49.9546 38.0798C51.6736 37.2045 52.7276 35.9039 52.926 34.4236C52.9649 34.1376 52.7638 33.8763 52.4749 33.8371C52.188 33.7984 51.9253 34.0011 51.8864 34.2871C51.7361 35.4188 50.8801 36.4354 49.478 37.1509C47.5054 38.1572 45.0097 38.2587 43.4057 37.3974C43.1509 37.2593 42.834 37.3564 42.6953 37.6105C42.5587 37.8651 42.654 38.1804 42.9088 38.3186C43.3082 38.5335 43.7474 38.698 44.2121 38.8151L44.2105 38.8124Z" fill="#FFE9AC"/>
<path d="M36.3242 23.1657C38.4365 23.6981 41.2375 23.3329 43.5229 22.1656C45.4109 21.2007 46.614 19.8615 46.9107 18.3924C46.9691 18.1091 46.7781 17.8347 46.5003 17.7781C46.2156 17.7221 45.9403 17.9036 45.8839 18.1874C45.6522 19.339 44.6422 20.4221 43.0437 21.2382C40.6418 22.4658 37.6452 22.7256 35.7595 21.8762C35.4977 21.7565 35.185 21.8726 35.0664 22.1362C34.9477 22.3998 35.0626 22.7089 35.327 22.827C35.6352 22.9674 35.9683 23.0805 36.3211 23.1694L36.3242 23.1657Z" fill="#FFE9AC"/>
<path d="M40.125 30.9074C42.2373 31.4398 45.0383 31.0746 47.3237 29.9073C49.2117 28.9424 50.4148 27.6032 50.7114 26.1341C50.7678 25.8503 50.581 25.5769 50.3011 25.5198C50.0164 25.4638 49.741 25.6453 49.6847 25.9291C49.4529 27.0807 48.443 28.1638 46.8445 28.9799C44.4426 30.2075 41.448 30.4678 39.5602 29.6179C39.2985 29.4982 38.9858 29.6143 38.8672 29.8779C38.7485 30.1415 38.8633 30.4506 39.1277 30.5687C39.436 30.7091 39.7691 30.8222 40.1218 30.9111L40.125 30.9074Z" fill="#FFE9AC"/>
<path d="M22.9335 32.3265C14.9328 30.5677 9.48965 31.8293 6.8684 32.76C4.82548 33.4846 1.76482 35.3579 5.08678 39.5909C6.79857 41.7729 9.76339 45.7746 17.2626 49.9869C26.7521 55.3194 35.897 55.3875 39.8079 55.5215C43.9661 55.6641 53.6501 55.5565 53.3595 55.1515C53.8461 55.0411 48.2667 46.4108 44.9191 43.3145C40.7941 39.5 33.5748 34.6635 22.9367 32.3228L22.9335 32.3265Z" fill="#2F766E"/>
<path d="M45.273 50.8397C45.4632 50.8876 45.6696 50.8006 45.7647 50.6206C45.8769 50.4089 45.7952 50.1461 45.5831 50.0343C35.2586 44.6099 18.0699 37.6296 10.5175 36.4114C10.2797 36.3739 10.0567 36.5352 10.0169 36.7718C9.97917 37.009 10.1402 37.2335 10.378 37.271C17.848 38.4773 34.9115 45.4104 45.1764 50.8041C45.208 50.821 45.2408 50.8338 45.2725 50.8418L45.273 50.8397Z" fill="#FFE9AC"/>
<path d="M12.7043 42.2725C12.7592 42.2863 12.8168 42.2896 12.8754 42.2797C14.9327 41.9718 16.6681 40.4986 17.292 38.5279C17.8578 36.742 17.3795 34.9012 16.0126 33.6048C15.8388 33.44 15.5631 33.4467 15.3978 33.6201C15.2324 33.7934 15.239 34.0683 15.4128 34.2331C16.5495 35.3125 16.9312 36.7817 16.4624 38.2651C15.9382 39.9226 14.4782 41.1606 12.7481 41.4189C12.5097 41.4551 12.3459 41.6759 12.3821 41.9135C12.4085 42.0926 12.5402 42.2288 12.707 42.2709L12.7043 42.2725Z" fill="#FFE9AC"/>
<path d="M34.9437 50.8983C35.0176 50.9169 35.0984 50.9171 35.1767 50.892C36.8853 50.373 38.386 48.7176 39.0022 46.6712C39.509 44.9847 39.2798 43.3927 38.3746 42.3044C38.2215 42.1202 37.9474 42.0937 37.7621 42.2486C37.5773 42.4014 37.5527 42.6751 37.7059 42.8593C38.4216 43.7206 38.5904 45.0197 38.1689 46.4231C37.6424 48.1695 36.3387 49.6328 34.9246 50.0625C34.6936 50.1319 34.5645 50.3749 34.634 50.6052C34.6811 50.7559 34.8018 50.8647 34.9432 50.9004L34.9437 50.8983Z" fill="#FFE9AC"/>
<path d="M20.2564 45.8977C20.3408 45.9189 20.4317 45.915 20.5189 45.881C22.3204 45.1905 24.0034 43.1264 24.7072 40.7438C25.261 38.8721 25.0945 37.1391 24.2524 35.9884C24.1109 35.7937 23.8385 35.7519 23.6453 35.8936C23.4521 36.0353 23.408 36.3063 23.5495 36.501C24.2296 37.4317 24.3493 38.8886 23.8729 40.4999C23.2406 42.6363 21.768 44.4734 20.2076 45.0723C19.9834 45.1592 19.8707 45.4085 19.9572 45.6341C20.0101 45.7706 20.125 45.8668 20.2579 45.9003L20.2564 45.8977Z" fill="#FFE9AC"/>
<path d="M27.5886 48.3929C27.6731 48.4142 27.7639 48.4102 27.8512 48.3762C29.6526 47.6858 31.3356 45.6216 32.0394 43.239C32.5932 41.3673 32.4268 39.6343 31.5847 38.4836C31.4426 38.291 31.1708 38.2471 30.9776 38.3888C30.7844 38.5305 30.7403 38.8016 30.8818 38.9963C31.5619 39.927 31.6816 41.3839 31.2051 42.9951C30.5729 45.1315 29.1002 46.9687 27.5399 47.5676C27.3157 47.6544 27.203 47.9037 27.2894 48.1293C27.3424 48.2659 27.4572 48.362 27.5902 48.3955L27.5886 48.3929Z" fill="#FFE9AC"/>
</svg>
