<svg width="47" height="48" viewBox="0 0 47 48" fill="none" xmlns="http://www.w3.org/2000/svg">
<path d="M19.1468 2.04605C21.1729 -0.682016 25.2787 -0.682016 27.3048 2.04605C28.5924 3.77969 30.8474 4.50761 32.9148 3.85694C36.168 2.83304 39.4896 5.23062 39.5147 8.62082C39.5307 10.7752 40.9244 12.681 42.9819 13.3618C46.2196 14.4332 47.4883 18.3125 45.5028 21.0699C44.2411 22.8222 44.2411 25.1778 45.5028 26.9301C47.4883 29.6875 46.2196 33.5668 42.9819 34.6382C40.9244 35.319 39.5307 37.2248 39.5147 39.3792C39.4896 42.7694 36.168 45.167 32.9148 44.1431C30.8474 43.4924 28.5924 44.2203 27.3048 45.9539C25.2787 48.682 21.1729 48.682 19.1468 45.9539C17.8592 44.2203 15.6042 43.4924 13.5369 44.1431C10.2836 45.167 6.962 42.7694 6.93688 39.3792C6.92092 37.2248 5.52725 35.319 3.46975 34.6382C0.232066 33.5668 -1.03669 29.6875 0.948783 26.9301C2.21052 25.1778 2.21052 22.8222 0.948784 21.0699C-1.03669 18.3125 0.232066 14.4332 3.46975 13.3618C5.52725 12.681 6.92092 10.7752 6.93688 8.62082C6.962 5.23062 10.2836 2.83304 13.5369 3.85694C15.6042 4.50761 17.8592 3.77969 19.1468 2.04605Z" fill="#FF7436"/>
<path d="M20.0927 5.17589C21.6488 3.07028 24.8026 3.07028 26.3587 5.17589C27.6018 6.85789 29.7784 7.56374 31.7736 6.93267C34.2733 6.14204 36.8235 7.99366 36.8428 10.6088C36.8582 12.6997 38.204 14.5484 40.1898 15.2088C42.6768 16.0359 43.6502 19.0295 42.126 21.1567C40.9078 22.857 40.9078 25.1428 42.126 26.8431C43.6502 28.9704 42.6768 31.9639 40.1898 32.791C38.204 33.4514 36.8582 35.3001 36.8428 37.391C36.8235 40.0062 34.2733 41.8578 31.7736 41.0671C29.7784 40.4361 27.6018 41.1419 26.3587 42.8239C24.8026 44.9295 21.6488 44.9295 20.0927 42.8239C18.8496 41.1419 16.673 40.4361 14.6778 41.0671C12.1782 41.8578 9.62791 40.0062 9.60863 37.391C9.59321 35.3001 8.2474 33.4514 6.26157 32.791C3.77458 31.9639 2.80125 28.9704 4.3254 26.8431C5.54365 25.1428 5.54365 22.857 4.3254 21.1567C2.80125 19.0295 3.77458 16.0359 6.26157 15.2088C8.2474 14.5484 9.59321 12.6997 9.60863 10.6088C9.62791 7.99366 12.1782 6.14204 14.6778 6.93267C16.673 7.56374 18.8496 6.85789 20.0927 5.17589Z" fill="#FF7436" stroke="white"/>
<path d="M30.4245 16.5817C29.4512 15.5988 28.2933 14.8179 27.0173 14.2839C25.7414 13.7498 24.3724 13.4732 22.9892 13.4698C21.606 13.4664 20.2357 13.7363 18.9571 14.2641C17.6786 14.7918 16.5168 15.567 15.5388 16.5451C14.5607 17.5232 13.7855 18.6849 13.2577 19.9635C12.7299 21.2421 12.46 22.6123 12.4634 23.9956C12.4668 25.3788 12.7435 26.7477 13.2775 28.0237C13.8116 29.2997 14.5925 30.4575 15.5754 31.4308C16.5487 32.4137 17.7065 33.1946 18.9825 33.7287C20.2585 34.2627 21.6274 34.5394 23.0106 34.5428C24.3939 34.5462 25.7641 34.2763 27.0427 33.7485C28.3213 33.2207 29.483 32.4455 30.4611 31.4674C31.4392 30.4894 32.2144 29.3276 32.7421 28.0491C33.2699 26.7705 33.5398 25.4002 33.5364 24.017C33.533 22.6338 33.2564 21.2648 32.7223 19.9889C32.1883 18.7129 31.4074 17.555 30.4245 16.5817ZM13.9999 24.0063C13.9996 23.2097 14.1052 22.4167 14.314 21.648C14.6581 22.3886 15.1577 23.0285 15.4976 23.7883C15.9368 24.7652 17.1162 24.4942 17.637 25.3502C18.0991 26.11 17.6056 27.071 17.9515 27.866C18.2027 28.443 18.7952 28.5691 19.204 28.991C19.6216 29.4166 19.6127 29.9997 19.6765 30.5547C19.7484 31.2068 19.8651 31.8532 20.0257 32.4892C20.0257 32.4939 20.0257 32.4991 20.0295 32.5038C16.5218 31.2719 13.9999 27.9283 13.9999 24.0063ZM22.9999 33.0063C22.4973 33.0061 21.9956 32.9641 21.4999 32.8806C21.5051 32.7536 21.5074 32.635 21.5201 32.5525C21.634 31.8072 22.0071 31.0783 22.5106 30.5205C23.0079 29.9702 23.6895 29.598 24.1095 28.9736C24.521 28.3642 24.6443 27.5439 24.4746 26.8319C24.2248 25.78 22.7956 25.4289 22.0249 24.8585C21.582 24.5303 21.1877 24.0231 20.606 23.9819C20.3379 23.9631 20.1134 24.0208 19.8476 23.9524C19.6038 23.8891 19.4126 23.7578 19.1529 23.7921C18.6677 23.8558 18.3616 24.3742 17.8404 24.3039C17.3459 24.2378 16.8363 23.6589 16.7238 23.1878C16.5795 22.5822 17.0585 22.3858 17.5718 22.3319C17.786 22.3094 18.0265 22.285 18.2323 22.3638C18.5032 22.4641 18.6312 22.7294 18.8745 22.8635C19.3306 23.1138 19.4229 22.7139 19.3531 22.3089C19.2485 21.7024 19.1266 21.4553 19.6676 21.0377C20.0426 20.7499 20.3632 20.5417 20.3032 20.0247C20.2676 19.721 20.1012 19.5836 20.2563 19.2813C20.374 19.0511 20.697 18.8435 20.9074 18.7061C21.4507 18.3517 23.2348 18.378 22.5059 17.3861C22.2916 17.095 21.8965 16.5747 21.5215 16.5035C21.0527 16.4149 20.8446 16.938 20.5179 17.1686C20.1804 17.4072 19.5232 17.6781 19.1852 17.3092C18.7306 16.8128 19.4866 16.6502 19.654 16.3033C19.7313 16.1416 19.654 15.9171 19.5237 15.7056C19.6927 15.6344 19.8646 15.5683 20.0393 15.5074C20.1488 15.5882 20.2787 15.6369 20.4143 15.648C20.7279 15.6686 21.0237 15.4989 21.2974 15.7127C21.6012 15.9471 21.8201 16.2433 22.2232 16.3164C22.6132 16.3872 23.0262 16.1599 23.1227 15.7605C23.1813 15.5177 23.1227 15.2613 23.0665 15.0105C24.8196 15.0206 26.5311 15.5456 27.9884 16.5203C27.8946 16.4847 27.7826 16.4889 27.6443 16.5531C27.3598 16.6853 26.9566 17.0219 26.9234 17.3556C26.8854 17.7344 27.4441 17.7878 27.7095 17.7878C28.1079 17.7878 28.5115 17.6097 28.3831 17.1494C28.3273 16.9497 28.2513 16.7421 28.129 16.6164C28.4231 16.8205 28.7048 17.0418 28.9727 17.2792C28.9685 17.2835 28.9643 17.2872 28.9601 17.2919C28.6901 17.5731 28.3765 17.7958 28.1918 18.138C28.0615 18.3789 27.9148 18.4933 27.6509 18.5556C27.5056 18.5899 27.3396 18.6025 27.2177 18.7C26.8784 18.9672 27.0715 19.6094 27.3931 19.8021C27.7995 20.0453 28.4023 19.931 28.7088 19.5836C28.9484 19.3117 29.0895 18.8397 29.5202 18.8402C29.7099 18.8398 29.8921 18.914 30.0274 19.0469C30.2056 19.2316 30.1704 19.4041 30.2084 19.6347C30.2754 20.0444 30.6368 19.8222 30.8566 19.6155C31.0169 19.9007 31.1615 20.1944 31.2898 20.4953C31.0479 20.8436 30.8557 21.2233 30.274 20.8174C29.9257 20.5741 29.7115 20.2211 29.2741 20.1114C28.8921 20.0177 28.5007 20.1152 28.1234 20.1803C27.6945 20.2549 27.1859 20.2877 26.8606 20.6125C26.546 20.9256 26.3796 21.3447 26.0449 21.6592C25.3976 22.2686 25.1243 22.9338 25.5434 23.7953C25.9465 24.6236 26.7898 25.0731 27.6996 25.0141C28.5935 24.9546 29.5221 24.4361 29.4963 25.735C29.487 26.1949 29.5831 26.5131 29.7241 26.9402C29.8549 27.3339 29.846 27.7155 29.876 28.1219C29.9045 28.5978 29.979 29.0698 30.0982 29.5314C29.258 30.6132 28.1817 31.4886 26.9515 32.0909C25.7212 32.6931 24.3697 33.0062 22.9999 33.0063Z" fill="white"/>
</svg>
