<svg width="47" height="48" viewBox="0 0 47 48" fill="none" xmlns="http://www.w3.org/2000/svg">
<path d="M19.5985 2.04605C21.6246 -0.682016 25.7304 -0.682016 27.7565 2.04605C29.044 3.77969 31.299 4.50761 33.3664 3.85694C36.6196 2.83304 39.9413 5.23062 39.9664 8.62082C39.9824 10.7752 41.376 12.681 43.4335 13.3618C46.6712 14.4332 47.94 18.3125 45.9545 21.0699C44.6928 22.8222 44.6928 25.1778 45.9545 26.9301C47.94 29.6875 46.6712 33.5668 43.4335 34.6382C41.376 35.319 39.9824 37.2248 39.9664 39.3792C39.9413 42.7694 36.6196 45.167 33.3664 44.1431C31.299 43.4924 29.044 44.2203 27.7565 45.9539C25.7304 48.682 21.6246 48.682 19.5985 45.9539C18.3109 44.2203 16.0559 43.4924 13.9885 44.1431C10.7353 45.167 7.41366 42.7694 7.38854 39.3792C7.37258 37.2248 5.97891 35.319 3.92141 34.6382C0.683726 33.5668 -0.585028 29.6875 1.40044 26.9301C2.66218 25.1778 2.66218 22.8222 1.40044 21.0699C-0.585028 18.3125 0.683726 14.4332 3.92141 13.3618C5.97891 12.681 7.37258 10.7752 7.38854 8.62082C7.41366 5.23062 10.7353 2.83304 13.9885 3.85694C16.0559 4.50761 18.3109 3.77969 19.5985 2.04605Z" fill="#3B88EF"/>
    <path d="M20.0927 5.17589C21.6488 3.07028 24.8026 3.07028 26.3587 5.17589C27.6018 6.85789 29.7784 7.56374 31.7736 6.93267C34.2733 6.14204 36.8235 7.99366 36.8428 10.6088C36.8582 12.6997 38.204 14.5484 40.1898 15.2088C42.6768 16.0359 43.6502 19.0295 42.126 21.1567C40.9078 22.857 40.9078 25.1428 42.126 26.8431C43.6502 28.9704 42.6768 31.9639 40.1898 32.791C38.204 33.4514 36.8582 35.3001 36.8428 37.391C36.8235 40.0062 34.2733 41.8578 31.7736 41.0671C29.7784 40.4361 27.6018 41.1419 26.3587 42.8239C24.8026 44.9295 21.6488 44.9295 20.0927 42.8239C18.8496 41.1419 16.673 40.4361 14.6778 41.0671C12.1782 41.8578 9.62791 40.0062 9.60863 37.391C9.59321 35.3001 8.2474 33.4514 6.26157 32.791C3.77458 31.9639 2.80125 28.9704 4.3254 26.8431C5.54365 25.1428 5.54365 22.857 4.3254 21.1567C2.80125 19.0295 3.77458 16.0359 6.26157 15.2088C8.2474 14.5484 9.59321 12.6997 9.60863 10.6088C9.62791 7.99366 12.1782 6.14204 14.6778 6.93267C16.673 7.56374 18.8496 6.85789 20.0927 5.17589Z" fill="transparent" stroke="white"/>
<path fill-rule="evenodd" clip-rule="evenodd" d="M34.5 24.0635C34.5 18.265 29.7984 13.5635 24 13.5635C18.2016 13.5635 13.5 18.265 13.5 24.0635C13.5 29.3041 17.3391 33.648 22.3594 34.4364V27.0996H19.6927V24.0635H22.3594V21.7502C22.3594 19.1191 23.9273 17.6646 26.3255 17.6646C27.4744 17.6646 28.6763 17.8699 28.6763 17.8699V20.4541H27.3516C26.048 20.4541 25.6402 21.2632 25.6402 22.0947V24.0635H28.552L28.087 27.0996H25.6406V34.4374C30.6609 33.6494 34.5 29.3055 34.5 24.0635Z" fill="white"/>
</svg>
