<svg width="47" height="48" viewBox="0 0 47 48" fill="none" xmlns="http://www.w3.org/2000/svg">
<path d="M19.1468 2.04605C21.1729 -0.682016 25.2787 -0.682016 27.3048 2.04605C28.5924 3.77969 30.8474 4.50761 32.9148 3.85694C36.168 2.83304 39.4896 5.23062 39.5147 8.62082C39.5307 10.7752 40.9244 12.681 42.9819 13.3618C46.2196 14.4332 47.4883 18.3125 45.5028 21.0699C44.2411 22.8222 44.2411 25.1778 45.5028 26.9301C47.4883 29.6875 46.2196 33.5668 42.9819 34.6382C40.9244 35.319 39.5307 37.2248 39.5147 39.3792C39.4896 42.7694 36.168 45.167 32.9148 44.1431C30.8474 43.4924 28.5924 44.2203 27.3048 45.9539C25.2787 48.682 21.1729 48.682 19.1468 45.9539C17.8592 44.2203 15.6042 43.4924 13.5369 44.1431C10.2836 45.167 6.962 42.7694 6.93688 39.3792C6.92092 37.2248 5.52725 35.319 3.46975 34.6382C0.232066 33.5668 -1.03669 29.6875 0.948783 26.9301C2.21052 25.1778 2.21052 22.8222 0.948784 21.0699C-1.03669 18.3125 0.232066 14.4332 3.46975 13.3618C5.52725 12.681 6.92092 10.7752 6.93688 8.62082C6.962 5.23062 10.2836 2.83304 13.5369 3.85694C15.6042 4.50761 17.8592 3.77969 19.1468 2.04605Z" fill="#3B88EF"/>
    <!--<path class="ic_hover" d="M20.0927 5.17589C21.6488 3.07028 24.8026 3.07028 26.3587 5.17589C27.6018 6.85789 29.7784 7.56374 31.7736 6.93267C34.2733 6.14204 36.8235 7.99366 36.8428 10.6088C36.8582 12.6997 38.204 14.5484 40.1898 15.2088C42.6768 16.0359 43.6502 19.0295 42.126 21.1567C40.9078 22.857 40.9078 25.1428 42.126 26.8431C43.6502 28.9704 42.6768 31.9639 40.1898 32.791C38.204 33.4514 36.8582 35.3001 36.8428 37.391C36.8235 40.0062 34.2733 41.8578 31.7736 41.0671C29.7784 40.4361 27.6018 41.1419 26.3587 42.8239C24.8026 44.9295 21.6488 44.9295 20.0927 42.8239C18.8496 41.1419 16.673 40.4361 14.6778 41.0671C12.1782 41.8578 9.62791 40.0062 9.60863 37.391C9.59321 35.3001 8.2474 33.4514 6.26157 32.791C3.77458 31.9639 2.80125 28.9704 4.3254 26.8431C5.54365 25.1428 5.54365 22.857 4.3254 21.1567C2.80125 19.0295 3.77458 16.0359 6.26157 15.2088C8.2474 14.5484 9.59321 12.6997 9.60863 10.6088C9.62791 7.99366 12.1782 6.14204 14.6778 6.93267C16.673 7.56374 18.8496 6.85789 20.0927 5.17589Z" fill="transparent" stroke="white"/>-->
    <g clip-path="url(#clip0_32_139)">
<path d="M32.869 19.8121C32.869 18.0543 31.576 16.6402 29.9784 16.6402C27.8143 16.5391 25.6073 16.5 23.3518 16.5H22.6487C20.3987 16.5 18.1877 16.5391 16.0237 16.6406C14.4299 16.6406 13.137 18.0625 13.137 19.8203C13.0393 21.2105 12.9979 22.6012 13.0002 23.9918C12.9963 25.3824 13.0406 26.7743 13.1331 28.1676C13.1331 29.9254 14.426 31.3512 16.0198 31.3512C18.2932 31.4566 20.6252 31.5035 22.9963 31.4996C25.3713 31.5074 27.6969 31.4579 29.9729 31.3512C31.5706 31.3512 32.8635 29.9254 32.8635 28.1676C32.9573 26.773 33.0002 25.3824 32.9963 23.9879C33.0052 22.5973 32.9627 21.2053 32.869 19.8121ZM21.0862 27.8238V20.148L26.7502 23.984L21.0862 27.8238Z" fill="white"/>
</g>
<defs>
<clipPath id="clip0_32_139">
<rect width="20" height="20" fill="white" transform="translate(13 14)"/>
</clipPath>
</defs>
</svg>
