<svg width="114" height="117" viewBox="0 0 114 117" fill="none" xmlns="http://www.w3.org/2000/svg">
<g filter="url(#filter0_d_32_718)">
<path d="M49.0969 15.9642C53.0225 10.6786 60.9775 10.6786 64.9031 15.9642C67.3978 19.3232 71.7668 20.7335 75.7723 19.4728C82.0754 17.489 88.5111 22.1343 88.5598 28.7028C88.5907 32.877 91.291 36.5693 95.2774 37.8885C101.55 39.9642 104.009 47.4805 100.162 52.823C97.7171 56.218 97.7171 60.782 100.162 64.177C104.009 69.5195 101.55 77.0358 95.2774 79.1115C91.291 80.4307 88.5907 84.123 88.5598 88.2972C88.5111 94.8657 82.0754 99.511 75.7723 97.5272C71.7668 96.2665 67.3978 97.6768 64.9031 101.036C60.9775 106.321 53.0225 106.321 49.0969 101.036C46.6023 97.6768 42.2332 96.2665 38.2277 97.5272C31.9246 99.511 25.4889 94.8657 25.4402 88.2972C25.4093 84.123 22.709 80.4306 18.7226 79.1115C12.4496 77.0358 9.99142 69.5195 13.8383 64.177C16.2829 60.782 16.2829 56.218 13.8383 52.823C9.99142 47.4805 12.4496 39.9642 18.7226 37.8885C22.709 36.5693 25.4093 32.877 25.4402 28.7028C25.4889 22.1343 31.9246 17.489 38.2277 19.4728C42.2332 20.7335 46.6023 19.3232 49.0969 15.9642Z" fill="#3B88EF"/>
<path d="M49.2976 16.1133C53.1233 10.9622 60.8767 10.9622 64.7024 16.1133C67.2609 19.5581 71.7408 21.0038 75.8474 19.7113C81.9923 17.7773 88.2624 22.3065 88.3098 28.7047C88.3415 32.9869 91.1115 36.7733 95.1988 38.1258C101.313 40.149 103.706 47.4726 99.9588 52.6769C97.4514 56.1592 97.4514 60.8408 99.9588 64.3231C103.706 69.5274 101.313 76.851 95.1988 78.8742C91.1115 80.2267 88.3415 84.0131 88.3098 88.2953C88.2624 94.6935 81.9923 99.2227 75.8474 97.2887C71.7408 95.9962 67.2609 97.4419 64.7024 100.887C60.8767 106.038 53.1233 106.038 49.2976 100.887C46.7391 97.4419 42.2592 95.9962 38.1526 97.2887C32.0077 99.2227 25.7376 94.6935 25.6902 88.2953C25.6585 84.0131 22.8885 80.2267 18.8012 78.8742C12.6871 76.851 10.2938 69.5274 14.0411 64.3231C16.5486 60.8408 16.5486 56.1592 14.0411 52.6769C10.2938 47.4726 12.6871 40.149 18.8012 38.1258C22.8885 36.7733 25.6585 32.9869 25.6902 28.7047C25.7376 22.3065 32.0077 17.7773 38.1526 19.7113C42.2592 21.0038 46.7391 19.5581 49.2976 16.1133Z" stroke="#82B7FF" stroke-width="0.5"/>
</g>
<path d="M73.2955 51.8961C73.0522 51.6511 72.7627 51.4567 72.4438 51.3244C72.1248 51.192 71.7828 51.1242 71.4375 51.125H66.1875V49.8125C66.1875 47.3758 65.2195 45.0389 63.4965 43.316C61.7736 41.593 59.4367 40.625 57 40.625C54.5633 40.625 52.2264 41.593 50.5035 43.316C48.7805 45.0389 47.8125 47.3758 47.8125 49.8125V51.125H42.5625C41.8663 51.125 41.1986 51.4016 40.7063 51.8938C40.2141 52.3861 39.9375 53.0538 39.9375 53.75V71.4688C39.9375 74.668 42.6445 77.375 45.8438 77.375H68.1563C69.7038 77.3755 71.19 76.7704 72.2972 75.6893C72.8544 75.1577 73.298 74.5188 73.6015 73.811C73.9049 73.1032 74.0617 72.3413 74.0625 71.5713V53.75C74.0636 53.4056 73.9963 53.0645 73.8647 52.7462C73.733 52.428 73.5396 52.1391 73.2955 51.8961ZM50.4375 49.8125C50.4375 48.072 51.1289 46.4028 52.3596 45.1721C53.5903 43.9414 55.2595 43.25 57 43.25C58.7405 43.25 60.4097 43.9414 61.6404 45.1721C62.8711 46.4028 63.5625 48.072 63.5625 49.8125V51.125H50.4375V49.8125ZM66.1875 57.6875C66.1875 60.1242 65.2195 62.4611 63.4965 64.184C61.7736 65.907 59.4367 66.875 57 66.875C54.5633 66.875 52.2264 65.907 50.5035 64.184C48.7805 62.4611 47.8125 60.1242 47.8125 57.6875V56.375C47.8125 56.0269 47.9508 55.6931 48.1969 55.4469C48.4431 55.2008 48.7769 55.0625 49.125 55.0625C49.4731 55.0625 49.8069 55.2008 50.0531 55.4469C50.2992 55.6931 50.4375 56.0269 50.4375 56.375V57.6875C50.4375 59.428 51.1289 61.0972 52.3596 62.3279C53.5903 63.5586 55.2595 64.25 57 64.25C58.7405 64.25 60.4097 63.5586 61.6404 62.3279C62.8711 61.0972 63.5625 59.428 63.5625 57.6875V56.375C63.5625 56.0269 63.7008 55.6931 63.9469 55.4469C64.1931 55.2008 64.5269 55.0625 64.875 55.0625C65.2231 55.0625 65.5569 55.2008 65.8031 55.4469C66.0492 55.6931 66.1875 56.0269 66.1875 56.375V57.6875Z" fill="white"/>
<defs>
<filter id="filter0_d_32_718" x="0" y="0" width="114" height="117" filterUnits="userSpaceOnUse" color-interpolation-filters="sRGB">
<feFlood flood-opacity="0" result="BackgroundImageFix"/>
<feColorMatrix in="SourceAlpha" type="matrix" values="0 0 0 0 0 0 0 0 0 0 0 0 0 0 0 0 0 0 127 0" result="hardAlpha"/>
<feOffset/>
<feGaussianBlur stdDeviation="6"/>
<feComposite in2="hardAlpha" operator="out"/>
<feColorMatrix type="matrix" values="0 0 0 0 0.508333 0 0 0 0 0.718657 0 0 0 0 1 0 0 0 1 0"/>
<feBlend mode="normal" in2="BackgroundImageFix" result="effect1_dropShadow_32_718"/>
<feBlend mode="normal" in="SourceGraphic" in2="effect1_dropShadow_32_718" result="shape"/>
</filter>
</defs>
</svg>
