<svg width="114" height="148" viewBox="0 0 114 148" fill="none" xmlns="http://www.w3.org/2000/svg">
<g filter="url(#filter0_d_32_744)">
<path d="M49.0969 15.9642C53.0225 10.6786 60.9775 10.6786 64.9031 15.9642C67.3978 19.3232 71.7668 20.7335 75.7723 19.4728C82.0754 17.489 88.5111 22.1343 88.5598 28.7028C88.5907 32.877 91.291 36.5693 95.2774 37.8885C101.55 39.9642 104.009 47.4805 100.162 52.823C97.7171 56.218 97.7171 60.782 100.162 64.177C104.009 69.5195 101.55 77.0358 95.2774 79.1115C91.291 80.4307 88.5907 84.123 88.5598 88.2972C88.5111 94.8657 82.0754 99.511 75.7723 97.5272C71.7668 96.2665 67.3978 97.6768 64.9031 101.036C60.9775 106.321 53.0225 106.321 49.0969 101.036C46.6023 97.6768 42.2332 96.2665 38.2277 97.5272C31.9246 99.511 25.4889 94.8657 25.4402 88.2972C25.4093 84.123 22.709 80.4306 18.7226 79.1115C12.4496 77.0358 9.99142 69.5195 13.8383 64.177C16.2829 60.782 16.2829 56.218 13.8383 52.823C9.99142 47.4805 12.4496 39.9642 18.7226 37.8885C22.709 36.5693 25.4093 32.877 25.4402 28.7028C25.4889 22.1343 31.9246 17.489 38.2277 19.4728C42.2332 20.7335 46.6023 19.3232 49.0969 15.9642Z" fill="#FF621C"/>
<path d="M49.2976 16.1133C53.1233 10.9622 60.8767 10.9622 64.7024 16.1133C67.2609 19.5581 71.7408 21.0038 75.8474 19.7113C81.9923 17.7773 88.2624 22.3065 88.3098 28.7047C88.3415 32.9869 91.1115 36.7733 95.1988 38.1258C101.313 40.149 103.706 47.4726 99.9588 52.6769C97.4514 56.1592 97.4514 60.8408 99.9588 64.3231C103.706 69.5274 101.313 76.851 95.1988 78.8742C91.1115 80.2267 88.3415 84.0131 88.3098 88.2953C88.2624 94.6935 81.9923 99.2227 75.8474 97.2887C71.7408 95.9962 67.2609 97.4419 64.7024 100.887C60.8767 106.038 53.1233 106.038 49.2976 100.887C46.7391 97.4419 42.2592 95.9962 38.1526 97.2887C32.0077 99.2227 25.7376 94.6935 25.6902 88.2953C25.6585 84.0131 22.8885 80.2267 18.8012 78.8742C12.6871 76.851 10.2938 69.5274 14.0411 64.3231C16.5486 60.8408 16.5486 56.1592 14.0411 52.6769C10.2938 47.4726 12.6871 40.149 18.8012 38.1258C22.8885 36.7733 25.6585 32.9869 25.6902 28.7047C25.7376 22.3065 32.0077 17.7773 38.1526 19.7113C42.2592 21.0038 46.7391 19.5581 49.2976 16.1133Z" stroke="#FF9566" stroke-width="0.5"/>
</g>
<path d="M73.2955 51.8961C73.0522 51.6511 72.7627 51.4567 72.4438 51.3244C72.1248 51.192 71.7828 51.1242 71.4375 51.125H66.1875V49.8125C66.1875 47.3758 65.2195 45.0389 63.4965 43.316C61.7736 41.593 59.4367 40.625 57 40.625C54.5633 40.625 52.2264 41.593 50.5035 43.316C48.7805 45.0389 47.8125 47.3758 47.8125 49.8125V51.125H42.5625C41.8663 51.125 41.1986 51.4016 40.7063 51.8938C40.2141 52.3861 39.9375 53.0538 39.9375 53.75V71.4688C39.9375 74.668 42.6445 77.375 45.8438 77.375H68.1563C69.7038 77.3755 71.19 76.7704 72.2972 75.6893C72.8544 75.1577 73.298 74.5188 73.6015 73.811C73.9049 73.1032 74.0617 72.3413 74.0625 71.5713V53.75C74.0636 53.4056 73.9963 53.0645 73.8647 52.7462C73.733 52.428 73.5396 52.1391 73.2955 51.8961ZM50.4375 49.8125C50.4375 48.072 51.1289 46.4028 52.3596 45.1721C53.5903 43.9414 55.2595 43.25 57 43.25C58.7405 43.25 60.4097 43.9414 61.6404 45.1721C62.8711 46.4028 63.5625 48.072 63.5625 49.8125V51.125H50.4375V49.8125ZM66.1875 57.6875C66.1875 60.1242 65.2195 62.4611 63.4965 64.184C61.7736 65.907 59.4367 66.875 57 66.875C54.5633 66.875 52.2264 65.907 50.5035 64.184C48.7805 62.4611 47.8125 60.1242 47.8125 57.6875V56.375C47.8125 56.0269 47.9508 55.6931 48.1969 55.4469C48.4431 55.2008 48.7769 55.0625 49.125 55.0625C49.4731 55.0625 49.8069 55.2008 50.0531 55.4469C50.2992 55.6931 50.4375 56.0269 50.4375 56.375V57.6875C50.4375 59.428 51.1289 61.0972 52.3596 62.3279C53.5903 63.5586 55.2595 64.25 57 64.25C58.7405 64.25 60.4097 63.5586 61.6404 62.3279C62.8711 61.0972 63.5625 59.428 63.5625 57.6875V56.375C63.5625 56.0269 63.7008 55.6931 63.9469 55.4469C64.1931 55.2008 64.5269 55.0625 64.875 55.0625C65.2231 55.0625 65.5569 55.2008 65.8031 55.4469C66.0492 55.6931 66.1875 56.0269 66.1875 56.375V57.6875Z" fill="white"/>
<rect x="7" y="117" width="99" height="31" rx="5" fill="#FF621C"/>
<path d="M21.944 126.96V138H20.344V126.96H21.944ZM27 126.96V128.224H21.816V126.96H27ZM28.424 126.96V138H26.824V126.96H28.424ZM35.5893 130C36.5599 130 37.2533 130.352 37.6693 131.056C38.0853 131.76 38.2933 132.789 38.2933 134.144C38.2933 135.157 38.1866 135.963 37.9733 136.56C37.7599 137.147 37.4346 137.568 36.9973 137.824C36.5599 138.069 36.0106 138.192 35.3493 138.192C34.8266 138.192 34.3146 138.123 33.8133 137.984C33.3119 137.835 32.8373 137.611 32.3893 137.312L32.4853 136.448C32.9546 136.587 33.3706 136.699 33.7333 136.784C34.0959 136.869 34.4853 136.912 34.9013 136.912C35.3386 136.912 35.6853 136.837 35.9413 136.688C36.2079 136.539 36.3999 136.261 36.5173 135.856C36.6346 135.451 36.6933 134.88 36.6933 134.144C36.6933 133.419 36.6399 132.853 36.5333 132.448C36.4266 132.032 36.2559 131.739 36.0213 131.568C35.7866 131.387 35.4666 131.296 35.0613 131.296C34.6559 131.296 34.2559 131.392 33.8613 131.584C33.4666 131.765 33.0133 132.053 32.5013 132.448L32.3253 131.488C32.5919 131.189 32.9013 130.928 33.2533 130.704C33.6159 130.48 33.9999 130.309 34.4053 130.192C34.8106 130.064 35.2053 130 35.5893 130ZM32.2613 130.192L32.4373 131.776L32.5493 131.984V137.008L32.4693 137.2C32.5013 137.499 32.5226 137.792 32.5333 138.08C32.5546 138.368 32.5599 138.672 32.5493 138.992V141.184H31.0133V130.192H32.2613ZM47.3959 130.192V138H46.0039V133.024C46.0039 132.843 46.0092 132.667 46.0199 132.496C46.0305 132.325 46.0465 132.139 46.0679 131.936H46.0199C45.9559 132.096 45.8705 132.267 45.7639 132.448C45.6679 132.619 45.5719 132.768 45.4759 132.896L41.6839 138H40.3879V130.192H41.7799V135.184C41.7799 135.355 41.7745 135.525 41.7639 135.696C41.7639 135.867 41.7532 136.053 41.7319 136.256H41.7639C41.8492 136.085 41.9399 135.92 42.0359 135.76C42.1319 135.589 42.2279 135.445 42.3239 135.328L46.1159 130.192H47.3959ZM56.289 130.192V131.344H53.441C52.865 131.344 52.5503 131.648 52.497 132.256C52.433 133.045 52.3263 133.776 52.177 134.448C52.0383 135.109 51.841 135.733 51.585 136.32C51.3397 136.896 51.0037 137.456 50.577 138H49.313C49.729 137.371 50.0543 136.731 50.289 136.08C50.5237 135.419 50.705 134.747 50.833 134.064C50.9717 133.381 51.0623 132.693 51.105 132C51.1583 131.392 51.3503 130.939 51.681 130.64C52.0117 130.341 52.4917 130.192 53.121 130.192H56.289ZM50.209 137.92L50.065 140.288H49.057V137.92H50.209ZM57.585 136.816V138H49.057V136.816H57.585ZM57.585 137.92V140.288H56.561L56.417 137.92H57.585ZM56.481 130.192V138H55.009V130.192H56.481ZM65.7261 126.208L66.0621 127.392C65.7421 127.595 65.4381 127.749 65.1501 127.856C64.8621 127.963 64.5795 128.043 64.3021 128.096C64.0355 128.139 63.7635 128.181 63.4861 128.224C63.2088 128.267 62.9208 128.331 62.6221 128.416C62.1101 128.555 61.7048 128.752 61.4061 129.008C61.1181 129.264 60.9048 129.552 60.7661 129.872C60.6381 130.192 60.5421 130.523 60.4781 130.864C60.4355 131.109 60.3981 131.333 60.3661 131.536C60.3448 131.728 60.3288 131.888 60.3181 132.016H60.3501C60.4461 131.824 60.5635 131.632 60.7021 131.44C60.8408 131.248 61.0168 131.077 61.2301 130.928C61.4541 130.779 61.7315 130.661 62.0621 130.576C62.4035 130.48 62.8195 130.432 63.3101 130.432C64.0888 130.432 64.7075 130.56 65.1661 130.816C65.6248 131.072 65.9555 131.477 66.1581 132.032C66.3608 132.576 66.4621 133.296 66.4621 134.192C66.4621 135.024 66.3608 135.739 66.1581 136.336C65.9555 136.933 65.5875 137.392 65.0541 137.712C64.5315 138.032 63.7901 138.192 62.8301 138.192C62.1368 138.192 61.5608 138.112 61.1021 137.952C60.6541 137.792 60.2968 137.568 60.0301 137.28C59.7741 136.981 59.5821 136.629 59.4541 136.224C59.3368 135.819 59.2568 135.365 59.2141 134.864C59.1821 134.363 59.1661 133.829 59.1661 133.264C59.1661 132.432 59.1981 131.685 59.2621 131.024C59.3368 130.363 59.4701 129.787 59.6621 129.296C59.8648 128.805 60.1635 128.389 60.5581 128.048C60.9528 127.707 61.4701 127.44 62.1101 127.248C62.4301 127.152 62.7341 127.077 63.0221 127.024C63.3208 126.971 63.6141 126.917 63.9021 126.864C64.2008 126.811 64.4995 126.736 64.7981 126.64C65.0968 126.544 65.4061 126.4 65.7261 126.208ZM62.9101 131.664C62.3021 131.664 61.8435 131.76 61.5341 131.952C61.2248 132.144 61.0168 132.427 60.9101 132.8C60.8141 133.163 60.7661 133.627 60.7661 134.192C60.7661 134.885 60.8301 135.435 60.9581 135.84C61.0861 136.245 61.2995 136.528 61.5981 136.688C61.9075 136.848 62.3128 136.928 62.8141 136.928C63.3155 136.928 63.7101 136.848 63.9981 136.688C64.2968 136.528 64.5101 136.251 64.6381 135.856C64.7661 135.451 64.8301 134.896 64.8301 134.192C64.8301 133.531 64.7715 133.019 64.6541 132.656C64.5475 132.283 64.3555 132.027 64.0781 131.888C63.8008 131.739 63.4115 131.664 62.9101 131.664ZM72.3201 130C72.9175 130 73.4188 130.08 73.8241 130.24C74.2295 130.389 74.5335 130.651 74.7361 131.024C74.9495 131.397 75.0561 131.909 75.0561 132.56V138H73.8401L73.6001 136.304L73.5201 136.112V132.56C73.5095 132.101 73.3975 131.771 73.1841 131.568C72.9815 131.365 72.5815 131.264 71.9841 131.264C71.5681 131.264 71.0508 131.285 70.4321 131.328C69.8241 131.371 69.2215 131.413 68.6241 131.456L68.4801 130.352C68.8428 130.288 69.2481 130.229 69.6961 130.176C70.1441 130.123 70.5975 130.08 71.0561 130.048C71.5148 130.016 71.9361 130 72.3201 130ZM74.3521 133.184L74.3361 134.272L70.6721 134.288C70.3095 134.299 70.0535 134.395 69.9041 134.576C69.7548 134.747 69.6801 134.987 69.6801 135.296V135.776C69.6801 136.16 69.7761 136.443 69.9681 136.624C70.1601 136.795 70.4535 136.88 70.8481 136.88C71.1468 136.88 71.4775 136.827 71.8401 136.72C72.2135 136.603 72.5868 136.432 72.9601 136.208C73.3335 135.973 73.6695 135.68 73.9681 135.328V136.336C73.8721 136.485 73.7175 136.667 73.5041 136.88C73.2908 137.083 73.0295 137.28 72.7201 137.472C72.4215 137.664 72.0855 137.824 71.7121 137.952C71.3388 138.08 70.9335 138.144 70.4961 138.144C70.0268 138.144 69.6108 138.064 69.2481 137.904C68.8961 137.733 68.6188 137.488 68.4161 137.168C68.2241 136.837 68.1281 136.437 68.1281 135.968V135.12C68.1281 134.512 68.3201 134.037 68.7041 133.696C69.0988 133.355 69.6428 133.184 70.3361 133.184H74.3521ZM80.9548 130.192V138H79.4028V130.192H80.9548ZM83.7388 130.192V131.44H76.6188V130.192H83.7388ZM92.349 130.192V138H90.957V133.024C90.957 132.843 90.9623 132.667 90.973 132.496C90.9837 132.325 90.9997 132.139 91.021 131.936H90.973C90.909 132.096 90.8237 132.267 90.717 132.448C90.621 132.619 90.525 132.768 90.429 132.896L86.637 138H85.341V130.192H86.733V135.184C86.733 135.355 86.7277 135.525 86.717 135.696C86.717 135.867 86.7063 136.053 86.685 136.256H86.717C86.8023 136.085 86.893 135.92 86.989 135.76C87.085 135.589 87.181 135.445 87.277 135.328L91.069 130.192H92.349Z" fill="white"/>
<defs>
<filter id="filter0_d_32_744" x="0" y="0" width="114" height="117" filterUnits="userSpaceOnUse" color-interpolation-filters="sRGB">
<feFlood flood-opacity="0" result="BackgroundImageFix"/>
<feColorMatrix in="SourceAlpha" type="matrix" values="0 0 0 0 0 0 0 0 0 0 0 0 0 0 0 0 0 0 127 0" result="hardAlpha"/>
<feOffset/>
<feGaussianBlur stdDeviation="6"/>
<feComposite in2="hardAlpha" operator="out"/>
<feColorMatrix type="matrix" values="0 0 0 0 1 0 0 0 0 0.585075 0 0 0 0 0.4 0 0 0 1 0"/>
<feBlend mode="normal" in2="BackgroundImageFix" result="effect1_dropShadow_32_744"/>
<feBlend mode="normal" in="SourceGraphic" in2="effect1_dropShadow_32_744" result="shape"/>
</filter>
</defs>
</svg>
