<svg width="539" height="539" viewBox="0 0 539 539" fill="none" xmlns="http://www.w3.org/2000/svg">
<circle cx="269.5" cy="269.5" r="235.5" fill="#F7F2D0"/>
<g clip-path="url(#clip0_61_3604)">
<path d="M240 295.164C240 337.593 274.256 372 316.5 372C358.744 372 393 337.593 393 295.164V279.836C393 237.407 358.744 203 316.5 203C274.256 203 240 237.407 240 279.836V295.164Z" fill="#83125A"/>
<path d="M317.248 347.883C354.463 347.883 384.632 317.582 384.632 280.203C384.632 242.825 354.463 212.523 317.248 212.523C280.033 212.523 249.864 242.825 249.864 280.203C249.864 317.582 280.033 347.883 317.248 347.883Z" fill="url(#paint0_linear_61_3604)"/>
</g>
<circle cx="269.5" cy="269.5" r="268.5" stroke="#FFC438" stroke-width="2"/>
<path d="M277.262 254.601L260.246 245.662C253.034 230.136 238.811 215.295 219.618 205.213C200.426 195.131 180.135 191.841 163.258 194.713L146.258 185.782C146.258 185.782 130.297 215.284 129.442 216.912C116.006 242.488 134.597 278.711 170.987 297.826C207.376 316.942 247.751 311.695 261.187 286.12C262.05 284.476 277.277 254.609 277.277 254.609L277.262 254.601Z" fill="#83125A"/>
<path d="M186.52 268.255C222.767 287.296 263.043 281.998 276.478 256.421C289.914 230.845 271.422 194.675 235.175 175.634C198.928 156.593 158.653 161.892 145.217 187.468C131.781 213.044 150.273 249.214 186.52 268.255Z" fill="url(#paint1_linear_61_3604)"/>
<defs>
<linearGradient id="paint0_linear_61_3604" x1="317.248" y1="347.883" x2="317.248" y2="212.523" gradientUnits="userSpaceOnUse">
<stop stop-color="#AB1761"/>
<stop offset="1" stop-color="#681249"/>
</linearGradient>
<linearGradient id="paint1_linear_61_3604" x1="184.687" y1="260.365" x2="224.98" y2="201.099" gradientUnits="userSpaceOnUse">
<stop stop-color="#AB1761"/>
<stop offset="1" stop-color="#681249"/>
</linearGradient>
<clipPath id="clip0_61_3604">
<rect width="153" height="169" fill="white" transform="translate(240 203)"/>
</clipPath>
</defs>
</svg>
