<svg width="427" height="482" viewBox="0 0 427 482" fill="none" xmlns="http://www.w3.org/2000/svg">
<path d="M47.5305 252.837C50.6597 252.973 53.3064 250.546 53.442 247.417C53.5776 244.287 51.1507 241.641 48.0215 241.505C44.8922 241.37 42.2456 243.796 42.11 246.926C41.9744 250.055 44.4012 252.702 47.5305 252.837Z" fill="#FFC438"/>
<path d="M253.781 143.49C260.324 143.773 265.858 138.699 266.142 132.156C266.425 125.613 261.351 120.079 254.808 119.795C248.265 119.512 242.731 124.586 242.448 131.129C242.164 137.672 247.238 143.206 253.781 143.49Z" fill="#FFC438"/>
<path d="M169.535 433.568C137.248 423.661 81.0534 373.332 60.0479 348.607C51.9482 355.489 84.9482 413.055 104.992 415.138C60.8932 410.548 53.3656 355.353 5.18308 352.537C28.9801 395.156 34.2326 420.185 76.5649 445.75C61.2413 436.495 8.01996 389.004 0.901158 394.789C-4.04657 398.81 32.4053 458.157 76.4982 474.965C123.249 492.791 155.789 475.668 169.535 433.568Z" fill="#2F766E"/>
<path d="M380.202 235.733C369.239 203.786 317.103 149.269 291.704 129.082C298.318 120.762 356.932 151.867 359.672 171.824C353.645 127.902 298.234 122.178 293.836 74.1151C337.208 96.5076 362.394 100.938 389.33 142.411C379.583 127.402 330.367 75.7585 335.919 68.4556C339.775 63.3785 400.283 97.8667 418.531 141.392C437.88 187.537 421.83 220.613 380.194 235.733L380.202 235.733Z" fill="#2F766E"/>
<path d="M340.8 209.65L284.707 301.643L327.809 202.947C298.084 189.433 263.757 185.791 230.061 194.735L255.448 299.442L216.132 199.171C183.502 211.38 157.619 234.24 141.209 262.489L233.202 318.581L134.507 275.48C120.993 305.205 117.35 339.532 126.295 373.228L231.001 347.841L130.731 387.156C142.947 419.788 165.8 445.67 194.049 462.08L250.141 370.086L207.039 468.782C236.764 482.296 271.091 485.938 304.788 476.994L279.4 372.287L318.716 472.558C351.347 460.342 377.229 437.489 393.639 409.24L301.646 353.148L400.342 396.25C413.855 366.524 417.498 332.197 408.553 298.501L303.847 323.889L404.118 284.573C391.901 251.942 369.049 226.059 340.8 209.65Z" fill="#FFC438"/>
<path d="M269.577 310.99C275.932 311.265 281.879 293.124 282.86 270.47C283.842 247.817 279.486 229.229 273.131 228.954C266.777 228.679 260.829 246.82 259.848 269.473C258.866 292.127 263.222 310.715 269.577 310.99Z" fill="#FFF9D5"/>
<path d="M251.296 317.511C255.984 313.212 247.362 296.179 232.037 279.467C216.713 262.754 200.489 252.691 195.801 256.989C191.113 261.288 199.735 278.321 215.06 295.034C230.384 311.746 246.608 321.81 251.296 317.511Z" fill="#FFF9D5"/>
<path d="M201.458 344.792C224.112 345.774 242.7 341.418 242.975 335.063C243.25 328.709 225.109 322.762 202.455 321.78C179.802 320.799 161.214 325.154 160.939 331.509C160.664 337.864 178.805 343.811 201.458 344.792Z" fill="#FFF9D5"/>
<path d="M227.031 389.581C243.744 374.257 253.807 358.033 249.508 353.345C245.209 348.657 228.176 357.28 211.464 372.604C194.751 387.929 184.688 404.152 188.987 408.84C193.286 413.528 210.319 404.906 227.031 389.581Z" fill="#FFF9D5"/>
<path d="M263.495 443.702C269.85 443.978 275.797 425.836 276.778 403.183C277.76 380.529 273.404 361.942 267.049 361.666C260.694 361.391 254.747 379.532 253.766 402.186C252.784 424.839 257.14 443.427 263.495 443.702Z" fill="#FFF9D5"/>
<path d="M340.835 415.653C345.523 411.355 336.901 394.322 321.576 377.609C306.252 360.897 290.028 350.833 285.34 355.132C280.652 359.431 289.274 376.464 304.599 393.176C319.923 409.889 336.147 419.952 340.835 415.653Z" fill="#FFF9D5"/>
<path d="M334.173 350.876C356.827 351.858 375.414 347.502 375.69 341.147C375.965 334.793 357.824 328.845 335.17 327.864C312.517 326.882 293.929 331.238 293.654 337.593C293.378 343.948 311.52 349.895 334.173 350.876Z" fill="#FFF9D5"/>
<path d="M325.172 300.039C341.884 284.715 351.948 268.491 347.649 263.803C343.35 259.115 326.317 267.737 309.604 283.062C292.892 298.386 282.829 314.61 287.127 319.298C291.426 323.986 308.459 315.364 325.172 300.039Z" fill="#FFF9D5"/>
<path d="M265.184 387.593C293.753 388.831 317.916 366.675 319.154 338.106C320.392 309.537 298.235 285.374 269.666 284.136C241.097 282.898 216.934 305.054 215.696 333.623C214.458 362.193 236.615 386.356 265.184 387.593Z" fill="#FF7436"/>
<path d="M235.176 344.447C237.77 344.56 239.964 342.548 240.076 339.954C240.188 337.361 238.177 335.167 235.583 335.054C232.989 334.942 230.796 336.954 230.683 339.547C230.571 342.141 232.582 344.335 235.176 344.447Z" fill="#FFC438"/>
<path d="M238.314 322.977C240.297 323.063 241.975 321.525 242.061 319.542C242.146 317.559 240.609 315.882 238.626 315.796C236.643 315.71 234.965 317.248 234.88 319.231C234.794 321.214 236.332 322.891 238.314 322.977Z" fill="#FFC438"/>
<path d="M252.854 364.596C255.603 364.715 257.927 362.583 258.046 359.835C258.165 357.086 256.034 354.761 253.285 354.642C250.537 354.523 248.212 356.655 248.093 359.403C247.974 362.152 250.105 364.477 252.854 364.596Z" fill="#FFC438"/>
<path d="M256.024 342.58C258.161 342.673 259.969 341.015 260.062 338.877C260.155 336.74 258.497 334.932 256.359 334.839C254.221 334.746 252.413 336.404 252.321 338.542C252.228 340.68 253.886 342.488 256.024 342.58Z" fill="#FFC438"/>
<path d="M283.683 362.607C285.971 362.706 287.907 360.932 288.006 358.643C288.105 356.355 286.33 354.419 284.042 354.32C281.754 354.221 279.818 355.996 279.719 358.284C279.62 360.573 281.394 362.508 283.683 362.607Z" fill="#FFC438"/>
<path d="M279.663 340.281C281.952 340.38 283.887 338.605 283.986 336.317C284.085 334.028 282.311 332.093 280.022 331.994C277.734 331.894 275.799 333.669 275.699 335.958C275.6 338.246 277.375 340.181 279.663 340.281Z" fill="#FFC438"/>
<path d="M254.831 312.62C257.12 312.719 259.055 310.945 259.154 308.656C259.253 306.368 257.479 304.432 255.19 304.333C252.902 304.234 250.966 306.009 250.867 308.297C250.768 310.586 252.543 312.521 254.831 312.62Z" fill="#FFC438"/>
<path d="M264.178 326.868C265.245 326.914 266.147 326.087 266.194 325.02C266.24 323.953 265.412 323.051 264.346 323.004C263.279 322.958 262.377 323.786 262.33 324.852C262.284 325.919 263.111 326.821 264.178 326.868Z" fill="#FFC438"/>
<path d="M157.804 49.2182C176.797 49.4643 188.953 43.8894 194.71 40.4505C199.198 37.7687 205.675 31.9173 196.706 23.6361C192.08 19.3679 184.014 11.4521 165.425 5.2281C141.898 -2.64417 120.798 1.60983 111.737 3.18281C102.102 4.85996 79.8198 9.78368 80.6123 10.5845C79.521 11.0761 95.0579 28.5439 103.732 34.1562C114.421 41.07 132.562 48.8835 157.812 49.2186L157.804 49.2182Z" fill="#FF7436"/>
<path d="M141.512 112.229C143.598 109.832 138.419 101.909 129.944 94.5341C121.469 87.1588 112.907 83.1235 110.821 85.5211C108.734 87.9186 113.913 95.841 122.388 103.216C130.863 110.592 139.425 114.627 141.512 112.229Z" fill="#FFF9D5"/>
</svg>
