<svg width="40" height="10" viewBox="0 0 40 10" fill="none" xmlns="http://www.w3.org/2000/svg">
<path d="M4.12188 0.42626C4.55806 -0.142087 5.44194 -0.142087 5.87812 0.42626C6.15531 0.787436 6.64076 0.939085 7.08581 0.803528C7.78616 0.590217 8.50124 1.08971 8.50664 1.796C8.51008 2.24484 8.81011 2.64187 9.25304 2.78371C9.95004 3.00691 10.2232 3.81511 9.79575 4.38957C9.52412 4.75463 9.52412 5.24537 9.79575 5.61043C10.2232 6.18489 9.95004 6.99309 9.25304 7.21629C8.81011 7.35813 8.51008 7.75516 8.50664 8.204C8.50124 8.91029 7.78616 9.40978 7.08581 9.19647C6.64076 9.06091 6.15531 9.21256 5.87812 9.57374C5.44194 10.1421 4.55806 10.1421 4.12188 9.57374C3.84469 9.21256 3.35924 9.06091 2.91418 9.19647C2.21384 9.40978 1.49876 8.91029 1.49336 8.204C1.48992 7.75516 1.18989 7.35813 0.74696 7.21629C0.0499586 6.99309 -0.223176 6.18489 0.204252 5.61043C0.475876 5.24537 0.475876 4.75463 0.204252 4.38957C-0.223176 3.81511 0.0499587 3.00691 0.74696 2.78371C1.18989 2.64187 1.48992 2.24484 1.49336 1.796C1.49876 1.08971 2.21384 0.590217 2.91418 0.803529C3.35924 0.939085 3.84469 0.787436 4.12188 0.42626Z" fill="#FF7436"/>
<path d="M19.1219 0.42626C19.5581 -0.142087 20.4419 -0.142087 20.8781 0.42626C21.1553 0.787436 21.6408 0.939085 22.0858 0.803528C22.7862 0.590217 23.5012 1.08971 23.5066 1.796C23.5101 2.24484 23.8101 2.64187 24.253 2.78371C24.95 3.00691 25.2232 3.81511 24.7957 4.38957C24.5241 4.75463 24.5241 5.24537 24.7957 5.61043C25.2232 6.18489 24.95 6.99309 24.253 7.21629C23.8101 7.35813 23.5101 7.75516 23.5066 8.204C23.5012 8.91029 22.7862 9.40978 22.0858 9.19647C21.6408 9.06091 21.1553 9.21256 20.8781 9.57374C20.4419 10.1421 19.5581 10.1421 19.1219 9.57374C18.8447 9.21256 18.3592 9.06091 17.9142 9.19647C17.2138 9.40978 16.4988 8.91029 16.4934 8.204C16.4899 7.75516 16.1899 7.35813 15.747 7.21629C15.05 6.99309 14.7768 6.18489 15.2043 5.61043C15.4759 5.24537 15.4759 4.75463 15.2043 4.38957C14.7768 3.81511 15.05 3.00691 15.747 2.78371C16.1899 2.64187 16.4899 2.24484 16.4934 1.796C16.4988 1.08971 17.2138 0.590217 17.9142 0.803529C18.3592 0.939085 18.8447 0.787436 19.1219 0.42626Z" fill="#FF7436"/>
<path d="M34.1219 0.42626C34.5581 -0.142087 35.4419 -0.142087 35.8781 0.42626C36.1553 0.787436 36.6408 0.939085 37.0858 0.803528C37.7862 0.590217 38.5012 1.08971 38.5066 1.796C38.5101 2.24484 38.8101 2.64187 39.253 2.78371C39.95 3.00691 40.2232 3.81511 39.7957 4.38957C39.5241 4.75463 39.5241 5.24537 39.7957 5.61043C40.2232 6.18489 39.95 6.99309 39.253 7.21629C38.8101 7.35813 38.5101 7.75516 38.5066 8.204C38.5012 8.91029 37.7862 9.40978 37.0858 9.19647C36.6408 9.06091 36.1553 9.21256 35.8781 9.57374C35.4419 10.1421 34.5581 10.1421 34.1219 9.57374C33.8447 9.21256 33.3592 9.06091 32.9142 9.19647C32.2138 9.40978 31.4988 8.91029 31.4934 8.204C31.4899 7.75516 31.1899 7.35813 30.747 7.21629C30.05 6.99309 29.7768 6.18489 30.2043 5.61043C30.4759 5.24537 30.4759 4.75463 30.2043 4.38957C29.7768 3.81511 30.05 3.00691 30.747 2.78371C31.1899 2.64187 31.4899 2.24484 31.4934 1.796C31.4988 1.08971 32.2138 0.590217 32.9142 0.803529C33.3592 0.939085 33.8447 0.787436 34.1219 0.42626Z" fill="#FF7436"/>
</svg>
