<svg width="68" height="425" viewBox="0 0 68 425" fill="none" xmlns="http://www.w3.org/2000/svg">
<g clip-path="url(#clip0_60_1329)">
<path d="M12.6512 425C5.6614 425 0 419.336 0 412.344C0 391.303 15.5847 380.886 26.9707 373.276C38.1433 365.801 42.6977 362.083 42.6977 355.249C42.6977 348.415 38.1433 344.697 26.9707 337.222C15.5847 329.613 0 319.187 0 298.154C0 277.121 15.5847 266.696 26.9707 259.086C38.1433 251.611 42.6977 247.894 42.6977 241.059C42.6977 234.225 38.1433 230.507 26.9707 223.032C15.5847 215.415 0 204.997 0 183.957C0 162.916 15.5847 152.498 26.9707 144.889C38.1433 137.414 42.6977 133.696 42.6977 126.862C42.6977 120.027 38.1433 116.31 26.9707 108.835C15.5847 101.217 0 90.7918 0 69.7589C0 48.726 15.5847 38.2926 26.9707 30.6832C38.1433 23.2081 42.6977 19.4904 42.6977 12.6561C42.6977 5.82181 48.3591 0 55.3488 0C62.3386 0 68 5.66361 68 12.6561C68 33.6969 52.4153 44.1144 41.0293 51.7318C29.8567 59.2069 25.3023 62.9246 25.3023 69.7589C25.3023 76.5932 29.8567 80.3109 41.0293 87.7859C52.4074 95.3954 68 105.821 68 126.862C68 147.902 52.4153 158.32 41.0293 165.929C29.8567 173.404 25.3023 177.122 25.3023 183.957C25.3023 190.791 29.8567 194.509 41.0293 201.984C52.4153 209.593 68 220.019 68 241.051C68 262.084 52.4153 272.51 41.0293 280.119C29.8567 287.594 25.3023 291.312 25.3023 298.146C25.3023 304.981 29.8567 308.698 41.0293 316.173C52.4153 323.783 68 334.208 68 355.241C68 376.274 52.4153 386.699 41.0293 394.309C29.8567 401.784 25.3023 405.502 25.3023 412.336C25.3023 419.17 19.6409 424.992 12.6512 424.992V425Z" fill="#2F766E"/>
</g>
<defs>
<clipPath id="clip0_60_1329">
<rect width="68" height="425" fill="white"/>
</clipPath>
</defs>
</svg>
