<svg width="90" height="93" viewBox="0 0 90 93" fill="none" xmlns="http://www.w3.org/2000/svg">
<g clip-path="url(#clip0_71_1796)">
<path d="M37.0969 3.96422C41.0225 -1.32141 48.9775 -1.32141 52.9031 3.96422V3.96422C55.3977 7.32315 59.7668 8.73349 63.7723 7.47281V7.47281C70.0754 5.48902 76.5111 10.1343 76.5598 16.7028V16.7028C76.5907 20.877 79.291 24.5693 83.2774 25.8885V25.8885C89.5504 27.9642 92.0086 35.4805 88.1617 40.823V40.823C85.7171 44.218 85.7171 48.782 88.1617 52.177V52.177C92.0086 57.5195 89.5504 65.0358 83.2774 67.1115V67.1115C79.291 68.4307 76.5907 72.123 76.5598 76.2972V76.2972C76.5111 82.8657 70.0754 87.511 63.7723 85.5272V85.5272C59.7668 84.2665 55.3977 85.6768 52.9031 89.0358V89.0358C48.9775 94.3214 41.0225 94.3214 37.0969 89.0358V89.0358C34.6023 85.6768 30.2332 84.2665 26.2277 85.5272V85.5272C19.9246 87.511 13.4889 82.8657 13.4402 76.2972V76.2972C13.4093 72.123 10.709 68.4306 6.72264 67.1115V67.1115C0.449627 65.0357 -2.00858 57.5195 1.83827 52.177V52.177C4.28288 48.782 4.28289 44.218 1.83827 40.823V40.823C-2.00858 35.4805 0.449628 27.9642 6.72264 25.8885V25.8885C10.709 24.5693 13.4093 20.877 13.4402 16.7028V16.7028C13.4889 10.1343 19.9246 5.48902 26.2277 7.47282V7.47282C30.2332 8.73349 34.6023 7.32315 37.0969 3.96422V3.96422Z" fill="#3B75BB"/>
<path d="M28.5799 12.9853C32.2548 14.1477 36.2636 12.8475 38.5528 9.74987C41.7551 5.41671 48.2449 5.41671 51.4472 9.74987C53.7364 12.8475 57.7452 14.1477 61.4201 12.9853C66.563 11.3586 71.8121 15.1679 71.8518 20.5513C71.8802 24.4013 74.3584 27.8062 78.0159 29.0225C83.1335 30.7243 85.1377 36.8855 82.0004 41.2643C79.757 44.3954 79.757 48.6046 82.0004 51.7357C85.1377 56.1145 83.1335 62.2757 78.0159 63.9775C74.3584 65.1938 71.8802 68.5987 71.8518 72.4487C71.8121 77.8321 66.563 81.6414 61.4201 80.0147C57.7452 78.8523 53.7364 80.1525 51.4472 83.2501C48.2449 87.5833 41.7551 87.5833 38.5528 83.2501C36.2636 80.1525 32.2548 78.8523 28.5799 80.0147C23.437 81.6414 18.1879 77.8321 18.1482 72.4487C18.1198 68.5987 15.6416 65.1938 11.9841 63.9775C6.86645 62.2757 4.86226 56.1145 7.99961 51.7357C10.243 48.6046 10.243 44.3954 7.99961 41.2643C4.86226 36.8855 6.86645 30.7243 11.9841 29.0225C15.6416 27.8062 18.1198 24.4013 18.1482 20.5513C18.1879 15.1679 23.437 11.3586 28.5799 12.9853Z" fill="#3B88EF" stroke="white"/>
<path fill-rule="evenodd" clip-rule="evenodd" d="M35.4201 38.6053C31.2814 38.9251 27.528 41.5979 25.8996 45.3851C25.2596 46.8735 25 48.1426 25 49.7831C25 52.2626 25.7133 54.4028 27.2324 56.4815C27.7153 57.1423 29.0392 58.4078 29.8067 58.9421C34.4442 62.1709 40.8866 61.5173 44.7156 57.4296C46.9194 55.077 48.0044 52.0336 47.7484 48.9237C47.5523 46.542 46.6685 44.4013 45.1415 42.6093C43.1137 40.2294 40.3922 38.8537 37.2153 38.6029C36.7081 38.5628 36.2576 38.5345 36.2142 38.54C36.1707 38.5455 35.8134 38.5749 35.4201 38.6053ZM35.8922 42.2063C36.5364 42.6295 36.5284 43.4836 35.8758 43.9629C35.7513 44.0543 35.491 44.1139 35.0221 44.1582C33.7264 44.2806 32.8677 44.6629 32.0237 45.4931C31.1788 46.3241 30.7808 47.1878 30.6656 48.4401C30.6225 48.908 30.5651 49.1537 30.4694 49.2798C29.9779 49.9272 29.1175 49.9325 28.674 49.2908C28.5133 49.0582 28.5061 49.0022 28.5426 48.271C28.6261 46.5991 29.33 45.1082 30.6034 43.9058C31.211 43.3321 31.575 43.0767 32.2737 42.7339C33.197 42.2808 34.0881 42.0608 35.0341 42.0522C35.5603 42.0474 35.6843 42.0697 35.8922 42.2063Z" fill="white"/>
<path fill-rule="evenodd" clip-rule="evenodd" d="M62.3054 61.643C67.5962 59.0305 71.1181 53.4695 71.2388 47.5373C71.2862 45.2059 70.949 43.3689 70.0703 41.1716C68.7423 37.8505 66.6546 35.3602 63.5364 33.3775C62.5451 32.7472 60.1199 31.7509 58.8209 31.4402C50.9711 29.5629 42.8188 33.8383 39.9549 41.3343C38.3066 45.6486 38.5046 50.2976 40.5083 54.328C42.0428 57.4149 44.3558 59.8157 47.3309 61.4103C51.2819 63.5278 55.6104 63.9342 59.9374 62.5936C60.6283 62.3797 61.238 62.1798 61.2924 62.1495C61.3468 62.1191 61.8026 61.8913 62.3054 61.643Z" fill="#3B88EF"/>
<path fill-rule="evenodd" clip-rule="evenodd" d="M61.3262 59.696C65.9034 57.4359 68.9502 52.625 69.0546 47.4929C69.0956 45.4759 68.8039 43.8868 68.0438 41.9858C66.8948 39.1126 65.0887 36.9583 62.3911 35.243C61.5335 34.6977 59.4355 33.8357 58.3117 33.567C51.5206 31.9429 44.4679 35.6416 41.9903 42.1266C40.5643 45.8589 40.7356 49.8809 42.469 53.3677C43.7966 56.0382 45.7976 58.1152 48.3714 59.4947C51.7895 61.3266 55.5342 61.6782 59.2776 60.5184C59.8753 60.3333 60.4027 60.1604 60.4498 60.1342C60.4968 60.1079 60.8912 59.9108 61.3262 59.696ZM59.1185 55.7388C58.1869 55.5424 57.8003 54.549 58.3233 53.6957C58.4231 53.5329 58.6927 53.3451 59.2075 53.0796C60.6301 52.3462 61.4334 51.5112 62.0124 50.1638C62.592 48.8151 62.6462 47.6325 62.1974 46.1287C62.0298 45.5669 61.9815 45.2559 62.0323 45.0662C62.2934 44.0915 63.2734 43.6926 64.077 44.2337C64.3684 44.4299 64.4026 44.4915 64.6997 45.3555C65.379 47.3309 65.2663 49.38 64.3695 51.3546C63.9416 52.2969 63.6444 52.7591 63.0055 53.4753C62.1612 54.4219 61.2458 55.0836 60.1697 55.5256C59.5711 55.7714 59.4192 55.8021 59.1185 55.7388Z" fill="white"/>
</g>
<defs>
<clipPath id="clip0_71_1796">
<rect width="90" height="93" fill="white"/>
</clipPath>
</defs>
</svg>
