<svg width="90" height="93" viewBox="0 0 90 93" fill="none" xmlns="http://www.w3.org/2000/svg">
<path d="M37.0969 3.96422C41.0225 -1.32141 48.9775 -1.32141 52.9031 3.96422C55.3978 7.32315 59.7668 8.73349 63.7723 7.47281C70.0754 5.48902 76.5111 10.1343 76.5598 16.7028C76.5907 20.877 79.291 24.5693 83.2774 25.8885C89.5504 27.9642 92.0086 35.4805 88.1617 40.823C85.7171 44.218 85.7171 48.782 88.1617 52.177C92.0086 57.5195 89.5504 65.0358 83.2774 67.1115C79.291 68.4307 76.5907 72.123 76.5598 76.2972C76.5111 82.8657 70.0754 87.511 63.7723 85.5272C59.7668 84.2665 55.3978 85.6768 52.9031 89.0358C48.9775 94.3214 41.0225 94.3214 37.0969 89.0358C34.6023 85.6768 30.2332 84.2665 26.2277 85.5272C19.9246 87.511 13.4889 82.8657 13.4402 76.2972C13.4093 72.123 10.709 68.4306 6.72264 67.1115C0.449627 65.0358 -2.00858 57.5195 1.83827 52.177C4.28288 48.782 4.28289 44.218 1.83827 40.823C-2.00858 35.4805 0.449628 27.9642 6.72264 25.8885C10.709 24.5693 13.4093 20.877 13.4402 16.7028C13.4889 10.1343 19.9246 5.48902 26.2277 7.47282C30.2332 8.73349 34.6023 7.32315 37.0969 3.96422Z" fill="#3B75BB"/>
<path d="M38.5528 9.74987C41.7551 5.41671 48.2449 5.41671 51.4472 9.74987C53.7364 12.8475 57.7452 14.1477 61.4201 12.9853C66.563 11.3586 71.8121 15.1679 71.8518 20.5513C71.8802 24.4013 74.3584 27.8062 78.0159 29.0225C83.1335 30.7243 85.1377 36.8855 82.0004 41.2643C79.757 44.3954 79.757 48.6046 82.0004 51.7357C85.1377 56.1145 83.1335 62.2757 78.0159 63.9775C74.3584 65.1938 71.8802 68.5987 71.8518 72.4487C71.8121 77.8321 66.563 81.6414 61.4201 80.0147C57.7452 78.8523 53.7364 80.1525 51.4472 83.2501C48.2449 87.5833 41.7551 87.5833 38.5528 83.2501C36.2636 80.1525 32.2548 78.8523 28.5799 80.0147C23.437 81.6414 18.1879 77.8321 18.1482 72.4487C18.1198 68.5987 15.6416 65.1938 11.9841 63.9775C6.86645 62.2757 4.86226 56.1145 7.99961 51.7357C10.243 48.6046 10.243 44.3954 7.99961 41.2643C4.86226 36.8855 6.86645 30.7243 11.9841 29.0225C15.6416 27.8062 18.1198 24.4013 18.1482 20.5513C18.1879 15.1679 23.437 11.3586 28.5799 12.9853C32.2548 14.1477 36.2636 12.8475 38.5528 9.74987Z" fill="#3B88EF" stroke="white"/>
<path fill-rule="evenodd" clip-rule="evenodd" d="M35.4201 38.6051C31.2814 38.9249 27.528 41.5978 25.8996 45.385C25.2596 46.8734 25 48.1425 25 49.783C25 52.2624 25.7133 54.4026 27.2324 56.4814C27.7153 57.1422 29.0392 58.4077 29.8067 58.942C34.4442 62.1707 40.8866 61.5171 44.7156 57.4294C46.9194 55.0768 48.0044 52.0335 47.7484 48.9236C47.5523 46.5418 46.6685 44.4012 45.1415 42.6091C43.1137 40.2292 40.3922 38.8536 37.2153 38.6027C36.7081 38.5627 36.2576 38.5344 36.2142 38.5399C36.1707 38.5454 35.8134 38.5748 35.4201 38.6051ZM35.8922 42.2061C36.5364 42.6294 36.5284 43.4835 35.8758 43.9628C35.7513 44.0542 35.491 44.1138 35.0221 44.1581C33.7264 44.2805 32.8677 44.6628 32.0237 45.493C31.1788 46.3239 30.7808 47.1877 30.6656 48.44C30.6225 48.9079 30.5651 49.1536 30.4694 49.2796C29.9779 49.9271 29.1175 49.9324 28.674 49.2907C28.5133 49.058 28.5061 49.002 28.5426 48.2709C28.6261 46.599 29.33 45.108 30.6034 43.9057C31.211 43.3319 31.575 43.0766 32.2737 42.7338C33.197 42.2807 34.0881 42.0607 35.0341 42.052C35.5603 42.0473 35.6843 42.0696 35.8922 42.2061Z" fill="white"/>
<path d="M61.7689 60.5927L61.7689 60.5927C61.5526 60.6995 61.3468 60.8017 61.1897 60.8803C61.0558 60.9472 60.9772 60.9871 60.9491 61.0013C60.9407 61.0056 60.9369 61.0076 60.9374 61.0073L60.9362 61.008C60.8575 61.0517 60.7748 61.0821 60.7649 61.0857L60.764 61.0861C60.7322 61.0981 60.6961 61.111 60.6598 61.1236C60.5861 61.1493 60.4905 61.1813 60.3817 61.217C60.163 61.2887 59.8764 61.3799 59.5735 61.4737L61.7689 60.5927ZM61.7689 60.5927C66.6831 58.1661 69.9425 53.0159 70.0544 47.5132C70.0982 45.3602 69.7814 43.638 68.9723 41.6145C67.7428 38.5398 65.796 36.2229 62.9277 34.3991C62.4224 34.0778 61.6173 33.6993 60.8312 33.3763C60.0395 33.051 59.1793 32.7463 58.5443 32.5944L58.3117 33.567M61.7689 60.5927L58.3117 33.567M58.3117 33.567L58.5442 32.5944C51.2693 30.8546 43.7146 34.8115 41.0561 41.7697M58.3117 33.567L41.0561 41.7697M63.754 45.6807L63.754 45.6806C63.6791 45.4628 63.6262 45.3117 63.5833 45.1986C63.5607 45.1391 63.5441 45.099 63.5324 45.0726C63.5282 45.0697 63.5235 45.0666 63.5185 45.0632L63.754 45.6807ZM63.754 45.6807C64.3468 47.4044 64.2545 49.1894 63.459 50.9411M63.754 45.6807L63.459 50.9411M62.2592 52.8097L62.2592 52.8096C62.8259 52.1743 63.0695 51.7988 63.459 50.9411M62.2592 52.8097L63.459 50.9411M62.2592 52.8097C61.5066 53.6534 60.7134 54.2212 59.7898 54.6005L62.2592 52.8097ZM41.0561 41.7697C39.5334 45.7553 39.7122 50.0686 41.5736 53.8129M41.0561 41.7697L41.5736 53.8129M41.5736 53.8129C42.9914 56.6649 45.1382 58.8964 47.899 60.3761C51.5558 62.3359 55.5774 62.7116 59.5735 61.4737L41.5736 53.8129ZM59.1074 54.6009C59.1308 54.6611 59.1843 54.7307 59.3248 54.7603L59.1074 54.6009ZM59.1074 54.6009C59.0839 54.5407 59.0689 54.4256 59.1457 54.2726L59.1074 54.6009ZM63.2283 45.0077C63.2856 44.9844 63.3818 44.9711 63.5185 45.0631L62.1974 46.1287L63.1557 45.8428C63.1557 45.8428 63.1557 45.8427 63.1557 45.8427C63.0766 45.5777 63.0374 45.4098 63.0211 45.3044C63.0188 45.2897 63.0172 45.2775 63.016 45.2675C63.0757 45.0984 63.171 45.031 63.2283 45.0077ZM62.9982 45.325L62.9982 45.325L62.9982 45.325ZM59.7898 54.6005C59.6444 54.6603 59.541 54.7007 59.4618 54.7287C59.4022 54.7498 59.3668 54.76 59.3476 54.7648C59.3417 54.7637 59.3342 54.7623 59.3248 54.7603L59.7898 54.6005Z" fill="white" stroke="#3B88EF" stroke-width="2"/>
</svg>
