<svg width="90" height="93" viewBox="0 0 90 93" fill="none" xmlns="http://www.w3.org/2000/svg">
<path d="M37.0969 3.96422C41.0225 -1.32141 48.9775 -1.32141 52.9031 3.96422C55.3978 7.32315 59.7668 8.73349 63.7723 7.47281C70.0754 5.48902 76.5111 10.1343 76.5598 16.7028C76.5907 20.877 79.291 24.5693 83.2774 25.8885C89.5504 27.9642 92.0086 35.4805 88.1617 40.823C85.7171 44.218 85.7171 48.782 88.1617 52.177C92.0086 57.5195 89.5504 65.0358 83.2774 67.1115C79.291 68.4307 76.5907 72.123 76.5598 76.2972C76.5111 82.8657 70.0754 87.511 63.7723 85.5272C59.7668 84.2665 55.3978 85.6768 52.9031 89.0358C48.9775 94.3214 41.0225 94.3214 37.0969 89.0358C34.6023 85.6768 30.2332 84.2665 26.2277 85.5272C19.9246 87.511 13.4889 82.8657 13.4402 76.2972C13.4093 72.123 10.709 68.4306 6.72264 67.1115C0.449627 65.0358 -2.00858 57.5195 1.83827 52.177C4.28288 48.782 4.28289 44.218 1.83827 40.823C-2.00858 35.4805 0.449628 27.9642 6.72264 25.8885C10.709 24.5693 13.4093 20.877 13.4402 16.7028C13.4889 10.1343 19.9246 5.48902 26.2277 7.47282C30.2332 8.73349 34.6023 7.32315 37.0969 3.96422Z" fill="#3B75BB"/>
<path d="M38.5528 9.74987C41.7551 5.41671 48.2449 5.41671 51.4472 9.74987C53.7364 12.8475 57.7452 14.1477 61.4201 12.9853C66.563 11.3586 71.8121 15.1679 71.8518 20.5513C71.8802 24.4013 74.3584 27.8062 78.0159 29.0225C83.1335 30.7243 85.1377 36.8855 82.0004 41.2643C79.757 44.3954 79.757 48.6046 82.0004 51.7357C85.1377 56.1145 83.1335 62.2757 78.0159 63.9775C74.3584 65.1938 71.8802 68.5987 71.8518 72.4487C71.8121 77.8321 66.563 81.6414 61.4201 80.0147C57.7452 78.8523 53.7364 80.1525 51.4472 83.2501C48.2449 87.5833 41.7551 87.5833 38.5528 83.2501C36.2636 80.1525 32.2548 78.8523 28.5799 80.0147C23.437 81.6414 18.1879 77.8321 18.1482 72.4487C18.1198 68.5987 15.6416 65.1938 11.9841 63.9775C6.86645 62.2757 4.86226 56.1145 7.99961 51.7357C10.243 48.6046 10.243 44.3954 7.99961 41.2643C4.86226 36.8855 6.86645 30.7243 11.9841 29.0225C15.6416 27.8062 18.1198 24.4013 18.1482 20.5513C18.1879 15.1679 23.437 11.3586 28.5799 12.9853C32.2548 14.1477 36.2636 12.8475 38.5528 9.74987Z" fill="#3B88EF" stroke="white"/>
<g clip-path="url(#clip0_32_85)">
<path d="M28.0593 45.3267H61.9715C61.9811 45.4561 61.997 45.5712 61.997 45.6862C61.9978 50.0703 62.0066 54.4537 61.9946 58.8378C61.9875 61.4522 60.259 63.4928 57.696 63.9402C57.3975 63.9922 57.0887 63.997 56.7839 63.997C48.943 64.0002 41.1021 64.0026 33.2613 63.997C30.6072 63.9954 28.57 62.2967 28.1056 59.7143C28.0569 59.4419 28.0465 59.159 28.0465 58.8818C28.0425 54.4713 28.0433 50.0608 28.0441 45.6511C28.0441 45.5592 28.0521 45.4665 28.0593 45.3267Z" fill="white"/>
<path d="M51.8068 35.0763C51.8068 34.0136 51.7997 32.9797 51.8116 31.945C51.8148 31.6702 51.8388 31.3825 51.9241 31.1236C52.1851 30.3334 52.9767 29.8884 53.8177 30.0242C54.583 30.1473 55.1902 30.836 55.2046 31.6438C55.2222 32.6394 55.2102 33.6357 55.2102 34.6321C55.2102 34.7743 55.2102 34.9165 55.2102 35.1035C55.7911 35.1035 56.3321 35.0987 56.8724 35.1043C59.4594 35.1314 61.5158 36.8413 61.9203 39.4013C62.0464 40.2003 61.9403 41.0361 61.9403 41.8766C50.6753 41.8766 39.3928 41.8766 28.1095 41.8766C27.4775 38.0662 29.6424 35.2377 33.0513 35.1083C33.6306 35.0859 34.2116 35.1051 34.83 35.1051C34.83 33.9985 34.8252 32.9398 34.834 31.8803C34.8356 31.6438 34.8531 31.3985 34.9202 31.174C35.1428 30.4213 35.849 29.9611 36.6613 30.009C37.4082 30.0538 38.0514 30.6043 38.1783 31.3554C38.2357 31.6925 38.2285 32.0425 38.2317 32.3869C38.2381 33.2746 38.2341 34.1623 38.2341 35.0771H51.8076L51.8068 35.0763Z" fill="white"/>
</g>
<defs>
<clipPath id="clip0_32_85">
<rect width="34" height="34" fill="white" transform="translate(28 30)"/>
</clipPath>
</defs>
</svg>
