<svg width="90" height="93" viewBox="0 0 90 93" fill="none" xmlns="http://www.w3.org/2000/svg">
<path d="M37.0969 3.96422C41.0225 -1.32141 48.9775 -1.32141 52.9031 3.96422C55.3978 7.32315 59.7668 8.73349 63.7723 7.47281C70.0754 5.48902 76.5111 10.1343 76.5598 16.7028C76.5907 20.877 79.291 24.5693 83.2774 25.8885C89.5504 27.9642 92.0086 35.4805 88.1617 40.823C85.7171 44.218 85.7171 48.782 88.1617 52.177C92.0086 57.5195 89.5504 65.0358 83.2774 67.1115C79.291 68.4307 76.5907 72.123 76.5598 76.2972C76.5111 82.8657 70.0754 87.511 63.7723 85.5272C59.7668 84.2665 55.3978 85.6768 52.9031 89.0358C48.9775 94.3214 41.0225 94.3214 37.0969 89.0358C34.6023 85.6768 30.2332 84.2665 26.2277 85.5272C19.9246 87.511 13.4889 82.8657 13.4402 76.2972C13.4093 72.123 10.709 68.4306 6.72264 67.1115C0.449627 65.0358 -2.00858 57.5195 1.83827 52.177C4.28288 48.782 4.28289 44.218 1.83827 40.823C-2.00858 35.4805 0.449628 27.9642 6.72264 25.8885C10.709 24.5693 13.4093 20.877 13.4402 16.7028C13.4889 10.1343 19.9246 5.48902 26.2277 7.47282C30.2332 8.73349 34.6023 7.32315 37.0969 3.96422Z" fill="#3B75BB"/>
<path d="M38.5528 9.74987C41.7551 5.41671 48.2449 5.41671 51.4472 9.74987C53.7364 12.8475 57.7452 14.1477 61.4201 12.9853C66.563 11.3586 71.8121 15.1679 71.8518 20.5513C71.8802 24.4013 74.3584 27.8062 78.0159 29.0225C83.1335 30.7243 85.1377 36.8855 82.0004 41.2643C79.757 44.3954 79.757 48.6046 82.0004 51.7357C85.1377 56.1145 83.1335 62.2757 78.0159 63.9775C74.3584 65.1938 71.8802 68.5987 71.8518 72.4487C71.8121 77.8321 66.563 81.6414 61.4201 80.0147C57.7452 78.8523 53.7364 80.1525 51.4472 83.2501C48.2449 87.5833 41.7551 87.5833 38.5528 83.2501C36.2636 80.1525 32.2548 78.8523 28.5799 80.0147C23.437 81.6414 18.1879 77.8321 18.1482 72.4487C18.1198 68.5987 15.6416 65.1938 11.9841 63.9775C6.86645 62.2757 4.86226 56.1145 7.99961 51.7357C10.243 48.6046 10.243 44.3954 7.99961 41.2643C4.86226 36.8855 6.86645 30.7243 11.9841 29.0225C15.6416 27.8062 18.1198 24.4013 18.1482 20.5513C18.1879 15.1679 23.437 11.3586 28.5799 12.9853C32.2548 14.1477 36.2636 12.8475 38.5528 9.74987Z" fill="#3B88EF" stroke="white"/>
<g clip-path="url(#clip0_32_81)">
<path d="M37.2191 42.714C37.1505 43.6328 37.0851 44.4774 37.0245 45.3238C36.8961 47.1051 36.7408 48.8839 36.655 50.6677C36.6116 51.5701 36.6786 52.4791 36.7211 53.384C36.8842 56.8579 37.0584 60.3302 37.227 63.8041C37.2853 65.0117 36.8874 65.6286 35.9017 65.8662C34.9791 66.0883 34.0636 65.5277 33.8777 64.5585C33.7658 63.9791 33.7508 63.3769 33.7217 62.7837C33.5515 59.256 33.39 55.7284 33.2245 52.2008C33.219 52.082 33.1978 51.964 33.182 51.8297H32.1601C32.1601 52.0006 32.1601 52.1699 32.1601 52.3383C32.1806 56.2631 32.2019 60.1878 32.22 64.1133C32.2239 64.9027 31.9017 65.5114 31.1973 65.8385C30.5387 66.1437 29.9139 66.0135 29.3679 65.5301C28.8376 65.0597 28.7746 64.4055 28.7691 63.7504C28.736 59.5278 28.7423 55.3045 28.6714 51.0827C28.643 49.395 28.4571 47.7097 28.3334 46.0236C28.2388 44.7289 28.1293 43.435 27.9749 42.12C27.9221 42.3096 27.8599 42.4968 27.8173 42.6888C27.3998 44.558 27.2201 46.4475 27.3391 48.3672C27.3801 49.032 26.9042 49.5618 26.2936 49.6106C25.657 49.6611 25.1519 49.2485 25.0432 48.5861C25.0211 48.4526 24.9951 48.3167 25.0014 48.1833C25.0574 46.9415 25.0527 45.6916 25.1953 44.4604C25.4844 41.9646 26.2085 39.5786 27.0618 37.231C27.2627 36.6784 27.5597 36.2536 28.0277 35.9013C29.4829 34.8068 31.0658 34.1558 32.8921 34.2722C34.3236 34.3633 35.5968 34.9321 36.8401 35.636C37.5169 36.0193 37.9045 36.5661 38.1196 37.2904C38.5648 38.7885 38.9627 40.3037 39.4677 41.779C39.7923 42.7279 40.2658 43.623 40.6897 44.5344C40.7819 44.733 40.9465 44.8957 41.1396 45.1594C41.4626 43.5091 41.9645 41.9979 41.8242 40.359C41.3137 41.0092 40.811 41.6488 40.3084 42.2893C40.2627 42.2787 40.2162 42.2673 40.1705 42.2567C39.9121 41.4714 39.6497 40.6878 39.4007 39.8993C39.3787 39.8293 39.4322 39.7219 39.4732 39.6454C40.083 38.498 40.7188 37.3652 41.2979 36.2024C41.5556 35.6848 41.8691 35.3154 42.3962 35.0656C44.8064 33.9214 47.1834 33.9467 49.614 35.0412C50.3491 35.3723 50.7391 35.8606 51.0605 36.5596C51.7909 38.1489 52.7474 39.5876 54.0513 40.7382C54.3712 41.0206 54.5225 41.2501 54.5438 41.7074C54.569 42.2657 54.8014 42.8141 54.9684 43.4578C54.7667 43.4651 54.4531 43.5636 54.2121 43.4676C53.7181 43.2715 53.1918 43.0542 52.8073 42.6978C52.0422 41.9865 51.3631 41.176 50.6508 40.4038C50.565 40.3102 50.4941 40.202 50.4161 40.1011C50.3711 40.11 50.3262 40.119 50.2813 40.1279C50.3507 41.1443 50.3514 42.1713 50.5027 43.1746C50.9944 46.4337 51.5372 49.6838 52.0722 52.9356C52.1084 53.1578 52.0485 53.2505 51.8721 53.3417C47.7491 55.4778 43.6884 55.3923 39.6859 52.9958C39.4787 52.8713 39.4346 52.7428 39.4858 52.5076C39.812 51.0046 40.1193 49.4967 40.4462 47.9937C40.5045 47.7251 40.4793 47.5665 40.2319 47.3923C39.459 46.8479 38.9099 46.0805 38.4616 45.2489C38.0306 44.449 37.6587 43.6157 37.2214 42.7181L37.2191 42.714Z" fill="white"/>
<path d="M60.3709 47.6275C60.2716 48.8351 60.2676 49.9817 60.4772 51.1372C60.7971 52.9039 61.0555 54.6827 61.3242 56.4592C61.3415 56.5747 61.262 56.783 61.1706 56.8278C58.5745 58.1249 56.0233 58.072 53.5321 56.5194C53.5116 56.5064 53.4974 56.4819 53.4604 56.4404C53.8338 54.7039 54.1789 52.9437 54.5981 51.2023C54.8644 50.0956 54.9676 48.9995 54.7651 47.8684C54.7367 47.8757 54.6887 47.8716 54.6682 47.8944C54.1844 48.4396 53.5983 48.4941 52.9435 48.311C52.6292 48.2232 52.2967 48.2077 51.9776 48.1336C51.4828 48.0197 51.181 47.5689 51.2567 47.0855C51.3292 46.6168 51.7215 46.3157 52.2297 46.3458C52.3865 46.3556 52.5472 46.3637 52.6961 46.4085C53.254 46.5761 53.718 46.4573 54.1624 46.0512C55.8823 44.4791 57.811 44.6068 59.7973 45.3807C60.2117 45.5426 60.6112 45.7534 61.0027 45.9699C61.258 46.1115 61.4699 46.1383 61.7213 45.956C61.9884 45.7632 62.283 45.6102 62.5698 45.4474C63.0922 45.1504 63.5744 45.2367 63.8541 45.6712C64.1251 46.0919 64.0109 46.7112 63.5507 47.0294C63.0292 47.3899 62.4966 47.7504 61.9253 48.0067C61.6693 48.1214 61.2998 48.014 60.9941 47.9473C60.7876 47.9017 60.6033 47.7512 60.3709 47.6267V47.6275Z" fill="white"/>
<path d="M49.54 30.3032C49.5329 32.1439 48.1108 33.6185 46.3507 33.6095C44.5858 33.6014 43.1464 32.0927 43.148 30.2528C43.1487 28.469 44.6142 26.9807 46.3499 27.0002C48.1423 27.0205 49.5471 28.4747 49.54 30.3032Z" fill="white"/>
<path d="M32.576 33.6095C30.8521 33.5973 29.4638 32.1195 29.4757 30.3089C29.4883 28.4706 30.9088 27.0018 32.6737 27.0034C34.3983 27.005 35.8425 28.5211 35.8275 30.3146C35.8118 32.1618 34.3708 33.6225 32.576 33.6103V33.6095Z" fill="white"/>
<path d="M41.9785 54.96C42.9634 55.1724 43.8946 55.3725 44.8417 55.5768C44.8417 58.2345 44.863 60.8963 44.8283 63.5581C44.8188 64.2945 44.2153 64.8332 43.5283 64.904C42.8736 64.9716 42.2251 64.5745 42.029 63.9153C41.9446 63.633 41.9809 63.3091 41.9809 63.0039C41.9777 60.4756 41.9793 57.9473 41.9793 55.4181V54.96H41.9785Z" fill="white"/>
<path d="M46.7494 55.6435C47.7106 55.4735 48.6348 55.3099 49.5755 55.1431C49.585 55.2171 49.6031 55.2944 49.6031 55.3709C49.6047 58.0335 49.607 60.6961 49.6031 63.3587C49.6023 64.0415 49.247 64.5745 48.6639 64.8121C48.1274 65.0302 47.5152 64.9024 47.1134 64.4573C46.8219 64.1342 46.6076 63.7713 46.7415 63.2904C46.773 63.1773 46.7502 63.0487 46.7502 62.9266C46.7502 60.6563 46.7502 58.3851 46.7502 56.1147C46.7502 55.9552 46.7502 55.7949 46.7502 55.6435H46.7494Z" fill="white"/>
<path d="M54.2451 57.709C55.1819 57.9629 56.0872 58.2078 57.0342 58.4641C56.909 59.439 56.7782 60.4668 56.6442 61.4938C56.5253 62.4052 56.3968 63.3149 56.2834 64.2263C56.166 65.1711 55.4671 65.7879 54.621 65.6773C53.7874 65.569 53.2776 64.7683 53.41 63.8203C53.6881 61.8266 53.9513 59.8304 54.2215 57.8351C54.2286 57.7822 54.2412 57.7301 54.2451 57.709Z" fill="white"/>
<path d="M57.6709 58.3499C58.1759 58.2832 58.6447 58.2441 59.104 58.153C59.565 58.0618 60.0164 57.9186 60.523 57.7852C60.5987 58.3353 60.6798 58.9008 60.7531 59.4672C60.9343 60.8603 61.1084 62.2551 61.2936 63.6483C61.4519 64.8412 60.8429 65.6509 59.8005 65.6175C59.13 65.5964 58.5872 65.135 58.4769 64.4059C58.2736 63.0575 58.109 61.7018 57.9301 60.3493C57.8419 59.6828 57.7576 59.0164 57.6709 58.3499Z" fill="white"/>
<path d="M59.9094 41.4799C59.8936 42.8943 58.7985 44.0262 57.4661 44.0042C56.1338 43.9822 55.0734 42.8707 55.0875 41.5109C55.1033 40.0518 56.1685 38.9492 57.5441 38.9695C58.8583 38.989 59.9243 40.1202 59.9101 41.4799H59.9094Z" fill="white"/>
</g>
<defs>
<clipPath id="clip0_32_81">
<rect width="39" height="39" fill="white" transform="translate(25 27)"/>
</clipPath>
</defs>
</svg>
