<svg width="90" height="93" viewBox="0 0 90 93" fill="none" xmlns="http://www.w3.org/2000/svg">
<path d="M37.0969 3.96422C41.0225 -1.32141 48.9775 -1.32141 52.9031 3.96422C55.3978 7.32315 59.7668 8.73349 63.7723 7.47281C70.0754 5.48902 76.5111 10.1343 76.5598 16.7028C76.5907 20.877 79.291 24.5693 83.2774 25.8885C89.5504 27.9642 92.0086 35.4805 88.1617 40.823C85.7171 44.218 85.7171 48.782 88.1617 52.177C92.0086 57.5195 89.5504 65.0358 83.2774 67.1115C79.291 68.4307 76.5907 72.123 76.5598 76.2972C76.5111 82.8657 70.0754 87.511 63.7723 85.5272C59.7668 84.2665 55.3978 85.6768 52.9031 89.0358C48.9775 94.3214 41.0225 94.3214 37.0969 89.0358C34.6023 85.6768 30.2332 84.2665 26.2277 85.5272C19.9246 87.511 13.4889 82.8657 13.4402 76.2972C13.4093 72.123 10.709 68.4306 6.72264 67.1115C0.449627 65.0358 -2.00858 57.5195 1.83827 52.177C4.28288 48.782 4.28289 44.218 1.83827 40.823C-2.00858 35.4805 0.449628 27.9642 6.72264 25.8885C10.709 24.5693 13.4093 20.877 13.4402 16.7028C13.4889 10.1343 19.9246 5.48902 26.2277 7.47282C30.2332 8.73349 34.6023 7.32315 37.0969 3.96422Z" fill="#3B75BB"/>
<path d="M38.5528 9.74987C41.7551 5.41671 48.2449 5.41671 51.4472 9.74987C53.7364 12.8475 57.7452 14.1477 61.4201 12.9853C66.563 11.3586 71.8121 15.1679 71.8518 20.5513C71.8802 24.4013 74.3584 27.8062 78.0159 29.0225C83.1335 30.7243 85.1377 36.8855 82.0004 41.2643C79.757 44.3954 79.757 48.6046 82.0004 51.7357C85.1377 56.1145 83.1335 62.2757 78.0159 63.9775C74.3584 65.1938 71.8802 68.5987 71.8518 72.4487C71.8121 77.8321 66.563 81.6414 61.4201 80.0147C57.7452 78.8523 53.7364 80.1525 51.4472 83.2501C48.2449 87.5833 41.7551 87.5833 38.5528 83.2501C36.2636 80.1525 32.2548 78.8523 28.5799 80.0147C23.437 81.6414 18.1879 77.8321 18.1482 72.4487C18.1198 68.5987 15.6416 65.1938 11.9841 63.9775C6.86645 62.2757 4.86226 56.1145 7.99961 51.7357C10.243 48.6046 10.243 44.3954 7.99961 41.2643C4.86226 36.8855 6.86645 30.7243 11.9841 29.0225C15.6416 27.8062 18.1198 24.4013 18.1482 20.5513C18.1879 15.1679 23.437 11.3586 28.5799 12.9853C32.2548 14.1477 36.2636 12.8475 38.5528 9.74987Z" fill="#3B88EF" stroke="white"/>
<path fill-rule="evenodd" clip-rule="evenodd" d="M35.4201 38.605C31.2814 38.9248 27.528 41.5976 25.8996 45.3849C25.2596 46.8733 25 48.1424 25 49.7829C25 52.2623 25.7133 54.4025 27.2324 56.4812C27.7153 57.1421 29.0392 58.4076 29.8067 58.9419C34.4442 62.1706 40.8866 61.517 44.7156 57.4293C46.9194 55.0767 48.0044 52.0334 47.7484 48.9235C47.5523 46.5417 46.6685 44.4011 45.1415 42.609C43.1137 40.2291 40.3922 38.8535 37.2153 38.6026C36.7081 38.5625 36.2576 38.5343 36.2142 38.5397C36.1707 38.5453 35.8134 38.5746 35.4201 38.605ZM35.8922 42.206C36.5364 42.6293 36.5284 43.4834 35.8758 43.9626C35.7513 44.0541 35.491 44.1136 35.0221 44.1579C33.7264 44.2804 32.8677 44.6626 32.0237 45.4928C31.1788 46.3238 30.7808 47.1876 30.6656 48.4399C30.6225 48.9077 30.5651 49.1535 30.4694 49.2795C29.9779 49.927 29.1175 49.9323 28.674 49.2906C28.5133 49.0579 28.5061 49.0019 28.5426 48.2708C28.6261 46.5989 29.33 45.1079 30.6034 43.9056C31.211 43.3318 31.575 43.0764 32.2737 42.7336C33.197 42.2806 34.0881 42.0606 35.0341 42.0519C35.5603 42.0471 35.6843 42.0694 35.8922 42.206Z" fill="white"/>
<path d="M61.767 60.5928L61.767 60.5928C61.5506 60.6996 61.3448 60.8019 61.1877 60.8804C61.0539 60.9473 60.9753 60.9872 60.9472 61.0015C60.9388 61.0057 60.9349 61.0077 60.9355 61.0074L60.9342 61.0081C60.8556 61.0519 60.7728 61.0822 60.763 61.0858L60.7621 61.0862C60.7302 61.0982 60.6942 61.1111 60.6579 61.1237C60.5841 61.1494 60.4885 61.1814 60.3797 61.2171C60.161 61.2888 59.8744 61.38 59.5716 61.4738L61.767 60.5928ZM61.767 60.5928C66.6812 58.1662 69.9405 53.016 70.0524 47.5133C70.0963 45.3604 69.7795 43.6381 68.9703 41.6146C67.7408 38.54 65.794 36.2231 62.9257 34.3993C62.4204 34.078 61.6154 33.6994 60.8293 33.3764C60.0375 33.0511 59.1774 32.7464 58.5423 32.5945L58.3097 33.5671M61.767 60.5928L58.3097 33.5671M58.3097 33.5671L58.5423 32.5945C51.2673 30.8547 43.7126 34.8116 41.0542 41.7698M58.3097 33.5671L41.0542 41.7698M63.7521 45.6808L63.7521 45.6808C63.6771 45.4629 63.6243 45.3118 63.5813 45.1987C63.5587 45.1392 63.5421 45.0991 63.5305 45.0727C63.5262 45.0698 63.5216 45.0667 63.5165 45.0633L63.7521 45.6808ZM63.7521 45.6808C64.3449 47.4046 64.2526 49.1895 63.4571 50.9412M63.7521 45.6808L63.4571 50.9412M62.2572 52.8098L62.2573 52.8097C62.8239 52.1745 63.0676 51.7989 63.4571 50.9412M62.2572 52.8098L63.4571 50.9412M62.2572 52.8098C61.5046 53.6536 60.7115 54.2213 59.7879 54.6006L62.2572 52.8098ZM41.0542 41.7698C39.5314 45.7554 39.7102 50.0687 41.5716 53.813M41.0542 41.7698L41.5716 53.813M41.5716 53.813C42.9894 56.665 45.1363 58.8965 47.8971 60.3762C51.5538 62.3361 55.5755 62.7118 59.5715 61.4738L41.5716 53.813ZM59.1054 54.601C59.1289 54.6612 59.1824 54.7308 59.3228 54.7604L59.1054 54.601ZM59.1054 54.601C59.082 54.5408 59.0669 54.4257 59.1437 54.2727L59.1054 54.601ZM63.2264 45.0078C63.2837 44.9845 63.3798 44.9713 63.5165 45.0633L62.1955 46.1288L63.1537 45.8429C63.1537 45.8429 63.1537 45.8429 63.1537 45.8429C63.0746 45.5778 63.0355 45.4099 63.0191 45.3045C63.0168 45.2899 63.0152 45.2776 63.014 45.2676C63.0737 45.0985 63.1691 45.0311 63.2264 45.0078ZM62.9963 45.3251L62.9963 45.3251L62.9963 45.3251ZM59.7878 54.6007C59.6424 54.6604 59.5391 54.7008 59.4599 54.7288C59.4003 54.7499 59.3649 54.7601 59.3457 54.7649C59.3398 54.7638 59.3322 54.7624 59.3228 54.7604L59.7878 54.6007Z" fill="white" stroke="#3B88EF" stroke-width="2"/>
</svg>
