<svg width="25" height="24" viewBox="0 0 25 24" fill="none" xmlns="http://www.w3.org/2000/svg">
<path d="M12.2975 2.625C7.12811 2.625 2.92249 6.83063 2.92249 12C2.92249 17.1694 7.12811 21.375 12.2975 21.375C17.4669 21.375 21.6725 17.1694 21.6725 12C21.6725 6.83063 17.4669 2.625 12.2975 2.625ZM12.2975 6.46875C12.5385 6.46875 12.7742 6.54023 12.9746 6.67415C13.175 6.80806 13.3312 6.99841 13.4235 7.2211C13.5157 7.4438 13.5398 7.68885 13.4928 7.92527C13.4458 8.16168 13.3297 8.37884 13.1593 8.54929C12.9888 8.71973 12.7717 8.83581 12.5353 8.88283C12.2988 8.92986 12.0538 8.90572 11.8311 8.81348C11.6084 8.72123 11.418 8.56502 11.2841 8.3646C11.1502 8.16418 11.0787 7.92855 11.0787 7.6875C11.0787 7.36427 11.2071 7.05427 11.4357 6.82571C11.6643 6.59715 11.9743 6.46875 12.2975 6.46875ZM14.5475 17.0625H10.4225C10.2236 17.0625 10.0328 16.9835 9.89216 16.8428C9.7515 16.7022 9.67249 16.5114 9.67249 16.3125C9.67249 16.1136 9.7515 15.9228 9.89216 15.7822C10.0328 15.6415 10.2236 15.5625 10.4225 15.5625H11.735V11.4375H10.985C10.7861 11.4375 10.5953 11.3585 10.4547 11.2178C10.314 11.0772 10.235 10.8864 10.235 10.6875C10.235 10.4886 10.314 10.2978 10.4547 10.1572C10.5953 10.0165 10.7861 9.9375 10.985 9.9375H12.485C12.6839 9.9375 12.8747 10.0165 13.0153 10.1572C13.156 10.2978 13.235 10.4886 13.235 10.6875V15.5625H14.5475C14.7464 15.5625 14.9372 15.6415 15.0778 15.7822C15.2185 15.9228 15.2975 16.1136 15.2975 16.3125C15.2975 16.5114 15.2185 16.7022 15.0778 16.8428C14.9372 16.9835 14.7464 17.0625 14.5475 17.0625Z" fill="#3B88EF"/>
</svg>
