<svg width="356" height="439" viewBox="0 0 356 439" fill="none" xmlns="http://www.w3.org/2000/svg">
<g clip-path="url(#clip0_131_129)">
<path d="M246.28 344.37C246.28 348.501 242.931 351.85 238.8 351.85C234.669 351.85 231.32 348.501 231.32 344.37C231.32 340.239 234.669 336.89 238.8 336.89C242.931 336.89 246.28 340.239 246.28 344.37Z" fill="#FFC438"/>
<path d="M281.39 92.5C293.22 99.93 310.15 94.27 310.15 94.27C310.15 94.27 307.89 76.57 296.05 69.15C284.21 61.73 267.29 67.38 267.29 67.38C267.29 67.38 269.55 85.08 281.39 92.5Z" fill="#FF7436"/>
<path d="M212.19 194.29C199.31 202.92 198.72 224.61 198.72 224.61C198.72 224.61 219.01 232.32 231.88 223.69C244.76 215.06 245.35 193.37 245.35 193.37C245.35 193.37 225.06 185.66 212.19 194.29Z" stroke="#2F766E" stroke-width="4" stroke-linecap="round" stroke-linejoin="round"/>
<path d="M231.73 202.44C231.73 202.44 215.28 210.75 198.72 224.61" stroke="#2F766E" stroke-width="4" stroke-linecap="round" stroke-linejoin="round"/>
<path d="M219.76 208.16L222.65 191.51" stroke="#2F766E" stroke-width="4" stroke-linecap="round" stroke-linejoin="round"/>
<path d="M215.39 212.4L233.84 221.82" stroke="#2F766E" stroke-width="4" stroke-linecap="round" stroke-linejoin="round"/>
<path d="M279.85 351.94C269.49 340.41 247.93 342.9 247.93 342.9C247.93 342.9 243.17 364.07 253.53 375.6C263.89 387.13 285.45 384.64 285.45 384.64C285.45 384.64 290.21 363.47 279.85 351.94Z" stroke="#2F766E" stroke-width="4" stroke-linecap="round" stroke-linejoin="round"/>
<path d="M274.55 372.44C274.55 372.44 263.99 357.34 247.93 342.91" stroke="#2F766E" stroke-width="4" stroke-linecap="round" stroke-linejoin="round"/>
<path d="M267.2 361.39L284.08 361.89" stroke="#2F766E" stroke-width="4" stroke-linecap="round" stroke-linejoin="round"/>
<path d="M262.38 357.67L255.67 377.27" stroke="#2F766E" stroke-width="4" stroke-linecap="round" stroke-linejoin="round"/>
<path d="M248.12 265.54C248.12 269.671 244.771 273.02 240.64 273.02C236.509 273.02 233.16 269.671 233.16 265.54C233.16 261.409 236.509 258.06 240.64 258.06C244.771 258.06 248.12 261.409 248.12 265.54Z" fill="#2F766E"/>
<path d="M166.87 18.6602C166.87 22.7913 163.521 26.1402 159.39 26.1402C155.259 26.1402 151.91 22.7913 151.91 18.6602C151.91 14.5291 155.259 11.1802 159.39 11.1802C163.521 11.1802 166.87 14.5291 166.87 18.6602Z" fill="#2F766E"/>
<path d="M49.5699 377.55C49.5699 381.681 46.2209 385.03 42.0899 385.03C37.9588 385.03 34.6099 381.681 34.6099 377.55C34.6099 373.419 37.9588 370.07 42.0899 370.07C46.2209 370.07 49.5699 373.419 49.5699 377.55Z" fill="#2F766E"/>
<path d="M75.4302 113.88C75.4302 118.011 72.0813 121.36 67.9502 121.36C63.8191 121.36 60.4702 118.011 60.4702 113.88C60.4702 109.749 63.8191 106.4 67.9502 106.4C72.0813 106.4 75.4302 109.749 75.4302 113.88Z" fill="#2F766E"/>
<mask id="mask0_131_129" style="mask-type:luminance" maskUnits="userSpaceOnUse" x="0" y="0" width="303" height="437">
<path d="M0.0298042 436.2L0.0297852 0.5L302.14 0.499987L302.14 436.2L0.0298042 436.2Z" fill="white"/>
</mask>
<g mask="url(#mask0_131_129)">
<path d="M-84.3701 403.4C-84.3701 403.4 -40.2001 419.41 -4.6501 378.55C22.6599 347.16 36.6199 303.87 51.3199 275.76C66.0199 247.65 94.7999 221.69 120.65 200.31C153.28 173.33 203.35 102.51 161.6 22.5" stroke="#2F766E" stroke-width="4.26" stroke-linecap="round" stroke-linejoin="round"/>
<path d="M-15.6401 435.86C-15.6401 435.86 45.3599 442.89 75.9099 372.25C116.48 278.44 190.46 340.75 200 221.43" stroke="#2F766E" stroke-width="4.26" stroke-linecap="round" stroke-linejoin="round"/>
<path d="M82.3799 235.22C82.3799 235.22 102.27 237.58 129.05 228.43C147.17 222.24 161.76 208.64 174.73 191.95C148.77 190.17 114.63 203.4 82.3799 235.22Z" stroke="#2F766E" stroke-width="4.26" stroke-linecap="round" stroke-linejoin="round"/>
<path d="M133.71 70.61C133.71 70.61 125.96 99.11 132.01 117.28C143.89 152.92 137.66 181.84 137.66 181.84C137.66 181.84 153.02 155.01 153.22 134.25C156.61 115.58 152.28 97.94 146.84 90.01C141.41 82.08 133.7 70.61 133.7 70.61L133.71 70.61Z" stroke="#2F766E" stroke-width="4.26" stroke-linecap="round" stroke-linejoin="round"/>
<path d="M17.0398 348.49C17.0398 348.49 31.0398 338.31 45.4598 332.79C65.1298 325.27 73.1998 323.56 86.6098 312.85C99.2598 302.75 107.82 282.3 107.82 282.3C92.1198 298 76.3798 298.69 60.7298 303.09C33.5798 310.73 17.0298 348.49 17.0298 348.49L17.0398 348.49Z" stroke="#2F766E" stroke-width="4.26" stroke-linecap="round" stroke-linejoin="round"/>
<path d="M50.9001 221.41C50.9001 221.41 43.0201 242.31 43.6501 253.98C44.2801 265.64 51.3301 275.76 51.3301 275.76C51.3301 275.76 62.3301 253.16 50.9101 221.41L50.9001 221.41Z" stroke="#2F766E" stroke-width="4.26" stroke-linecap="round" stroke-linejoin="round"/>
</g>
<path d="M309.64 282.26C298.58 266.05 271.11 265.54 271.11 265.54C271.11 265.54 261.57 291.31 272.63 307.51C283.69 323.72 311.16 324.23 311.16 324.23C311.16 324.23 320.7 298.46 309.64 282.26Z" stroke="#FFF9D5" stroke-width="4" stroke-linecap="round" stroke-linejoin="round"/>
<path d="M299.55 307.09C299.55 307.09 288.84 286.36 271.12 265.55" stroke="#FFF9D5" stroke-width="4" stroke-linecap="round" stroke-linejoin="round"/>
<path d="M292.18 291.99L313.28 295.46" stroke="#FFF9D5" stroke-width="4" stroke-linecap="round" stroke-linejoin="round"/>
<path d="M286.76 286.5L275.03 309.97" stroke="#FFF9D5" stroke-width="4" stroke-linecap="round" stroke-linejoin="round"/>
<path d="M354.802 228.384C351.696 230.858 340.122 221.499 328.95 207.479C317.778 193.459 311.238 180.087 314.344 177.612C317.45 175.137 329.024 184.497 340.196 198.517C351.368 212.537 357.908 225.909 354.802 228.384Z" fill="#FFF9D5"/>
</g>
<defs>
<clipPath id="clip0_131_129">
<rect width="438" height="355" fill="white" transform="matrix(4.37114e-08 1 1 -4.37114e-08 0.5 0.5)"/>
</clipPath>
</defs>
</svg>
