<svg width="439" height="478" viewBox="0 0 439 478" fill="none" xmlns="http://www.w3.org/2000/svg">
<g clip-path="url(#clip0_131_128)">
<g clip-path="url(#clip1_131_128)">
<path d="M233.968 10.1708C234.986 6.59037 232.909 2.86236 229.329 1.844C225.748 0.825636 222.02 2.90256 221.002 6.48295C219.984 10.0633 222.061 13.7914 225.641 14.8097C229.221 15.8281 232.949 13.7512 233.968 10.1708Z" fill="#FFF9D5"/>
<path d="M434.502 268.193C436.865 259.884 432.046 251.234 423.738 248.871C415.429 246.507 406.779 251.327 404.415 259.635C402.052 267.943 406.872 276.594 415.18 278.957C423.488 281.32 432.139 276.501 434.502 268.193Z" fill="#FFC438"/>
<path d="M315.592 251.755C319.654 238.386 336.142 231.556 336.142 231.556C336.142 231.556 346.038 246.4 341.976 259.769C337.914 273.137 321.426 279.967 321.426 279.967C321.426 279.967 311.53 265.123 315.592 251.755V251.755Z" fill="#FF7436"/>
<path d="M402.686 213.011C402.157 210.787 391.401 211.441 378.661 214.472C365.922 217.503 356.024 221.763 356.553 223.987C357.083 226.211 367.839 225.558 380.578 222.527C393.317 219.496 403.215 215.236 402.686 213.011Z" fill="#FFF9D5"/>
<path d="M115.952 216.347C153.982 181.076 187.747 170.562 205.053 167.25C218.543 164.672 241.263 165.136 236.715 198.962C234.376 216.397 231.035 247.812 203.624 294.909C168.935 354.513 119.233 384.178 98.3136 397.451C76.0669 411.553 22.8608 441.988 23.1441 438.835C20.1357 439.799 22.885 374.645 31.2146 346.968C41.4857 312.867 65.3741 263.239 115.943 216.345L115.952 216.347Z" fill="#FF7436"/>
<path d="M198.588 201.093C160.424 232.666 89.1769 326.567 51.4805 387.312" stroke="#FFE9AC" stroke-width="3.77" stroke-linecap="round" stroke-linejoin="round"/>
<path d="M201.798 236.117C179.405 245.104 153.44 226.407 160.467 201.957" stroke="#FFE9AC" stroke-width="3.77" stroke-linecap="round" stroke-linejoin="round"/>
<path d="M108.091 354.559C89.0461 359.123 63.2218 340.258 66.3951 320.877" stroke="#FFE9AC" stroke-width="3.77" stroke-linecap="round" stroke-linejoin="round"/>
<path d="M172.232 280.158C151.374 283.604 121.169 261.424 123.231 240.906" stroke="#FFE9AC" stroke-width="3.77" stroke-linecap="round" stroke-linejoin="round"/>
<path d="M140.211 317.295C119.352 320.74 89.1479 298.561 91.21 278.042" stroke="#FFE9AC" stroke-width="3.77" stroke-linecap="round" stroke-linejoin="round"/>
<path d="M237.241 317.519C294.886 310.48 333.68 323.407 352.326 331.943C366.858 338.603 388.471 354.253 363.963 382.412C351.319 396.927 329.409 423.663 274.953 448.732C206.047 480.451 140.494 474.5 112.432 472.715C82.602 470.821 13.2217 463.231 15.364 460.524C11.8916 459.391 53.3244 401.154 77.8361 381.209C108.039 356.644 160.588 326.875 237.232 317.516L237.241 317.519Z" fill="#327770"/>
<path d="M325.946 358.822C270.376 362.365 145.824 401.222 73.3398 431.996" stroke="#FFE9AC" stroke-width="6.6" stroke-linecap="round" stroke-linejoin="round"/>
<path d="M308.191 393.279C281.263 386.556 267.378 351.926 288.703 334.079" stroke="#FFE9AC" stroke-width="6.6" stroke-linecap="round" stroke-linejoin="round"/>
<path d="M147.395 439.71C126.33 431.161 112.666 396.449 127.27 380.704" stroke="#FFE9AC" stroke-width="6.6" stroke-linecap="round" stroke-linejoin="round"/>
<path d="M253.484 414.076C231.335 403.275 215.431 362.581 229.642 345.04" stroke="#FFE9AC" stroke-width="6.6" stroke-linecap="round" stroke-linejoin="round"/>
<path d="M200.524 426.875C178.374 416.074 162.47 375.38 176.681 357.839" stroke="#FFE9AC" stroke-width="6.6" stroke-linecap="round" stroke-linejoin="round"/>
</g>
</g>
<defs>
<clipPath id="clip0_131_128">
<rect width="439" height="478" fill="white"/>
</clipPath>
<clipPath id="clip1_131_128">
<rect width="567.36" height="366.35" fill="white" transform="translate(0 456.715) rotate(-74.1228)"/>
</clipPath>
</defs>
</svg>
