<svg width="189" height="24" viewBox="0 0 189 24" fill="none" xmlns="http://www.w3.org/2000/svg">
<path d="M17.4594 2.19244C18.3372 2.19244 18.7859 2.64063 18.8152 3.54676L19.4492 18.9021H16.0256L15.4696 5.04722H15.0307L12.3386 15.4628C12.1923 16.2422 11.7046 16.6222 10.8853 16.6222H8.55413C7.72505 16.6222 7.22761 16.2325 7.05204 15.4628L4.36973 5.04722H3.96007L3.45287 18.9021H0L0.634001 3.54676C0.663262 2.64063 1.13145 2.19244 2.01905 2.19244H5.49142C6.28148 2.19244 6.76918 2.59192 6.94475 3.38112L9.10035 11.7895C9.19789 12.1793 9.27592 12.569 9.34419 12.9685C9.41247 13.368 9.48075 13.7674 9.55878 14.1669H9.8709C9.94893 13.7674 10.027 13.368 10.105 12.9685C10.183 12.569 10.2513 12.1695 10.3391 11.7701L12.4654 3.38112C12.6312 2.59192 13.1092 2.19244 13.9188 2.19244H17.4594Z" fill="#3B88EF"/>
<path d="M24.9016 6.93743L27.184 14.6931C27.2523 15.0048 27.3108 15.3069 27.3791 15.6187C27.4474 15.9207 27.4961 16.2325 27.5449 16.5345H28.1984L27.0572 18.9119H26.1794C25.8868 18.9119 25.6429 18.8339 25.4381 18.6683C25.2332 18.5027 25.0869 18.2981 24.9894 18.035L21.0586 6.93743H24.8919H24.9016ZM34.4116 6.93743L30.1199 19.0483C29.8956 19.8083 29.603 20.4611 29.2616 21.0067C28.9104 21.5523 28.5203 22.02 28.0814 22.4C27.6424 22.78 27.1548 23.0917 26.5988 23.3353C25.916 23.6763 25.1747 23.8615 24.3652 23.8907C23.5556 23.9199 22.7363 23.8712 21.8877 23.7251L22.1803 21.3964C22.8728 21.4159 23.4873 21.3867 24.0238 21.3087C24.5602 21.2308 25.0187 21.0846 25.4088 20.8605C25.7112 20.6657 25.994 20.3929 26.2574 20.0226C26.5208 19.6524 26.7256 19.2626 26.8914 18.8437L27.5449 17.2945C27.7107 16.9243 27.8473 16.4858 27.9838 15.9889C28.1106 15.492 28.2277 15.0536 28.3252 14.6833L30.5784 6.92769H34.4116V6.93743Z" fill="#3B88EF"/>
<path d="M39.7178 6.93743V10.0163C39.7178 10.4547 39.6691 10.9029 39.5813 11.3609C39.4935 11.8188 39.3667 12.2475 39.2009 12.6275C39.3472 12.9977 39.4642 13.3972 39.5618 13.8259C39.6593 14.2546 39.7081 14.6346 39.7081 14.9756V18.9022H36.1187V6.93743H39.7081H39.7178ZM41.4443 11.4875V13.9331H38.8205V11.4875H41.4443ZM47.4624 6.93743C47.1698 7.84355 46.9162 8.60353 46.7113 9.23684C46.5065 9.87015 46.2919 10.3865 46.0968 10.7958C45.892 11.205 45.6677 11.5362 45.4336 11.7798C45.1897 12.0234 44.8874 12.2085 44.5265 12.3352C44.1656 12.4619 43.7169 12.5593 43.1804 12.6275V12.7249C43.7267 12.8029 44.1948 12.91 44.5752 13.027C44.9556 13.1439 45.2873 13.3388 45.5604 13.5823C45.8335 13.8259 46.0871 14.1767 46.3114 14.6151C46.5358 15.0536 46.7699 15.6187 47.0137 16.3104C47.2576 17.0022 47.5404 17.8694 47.8623 18.9022H44.1266C43.834 17.996 43.5901 17.2458 43.3853 16.6515C43.1804 16.0571 42.9951 15.57 42.8196 15.1997C42.644 14.8295 42.4489 14.5567 42.2538 14.3715C42.049 14.1962 41.8149 14.0792 41.5515 14.0208C41.2882 13.9623 40.9566 13.9331 40.5664 13.9331L40.5176 11.4875C41.0053 11.4875 41.3955 11.4193 41.7076 11.2927C42.01 11.166 42.2733 10.9322 42.4977 10.6009C42.7123 10.2696 42.9268 9.81169 43.1317 9.21735C43.3365 8.63276 43.5706 7.86304 43.8437 6.92769H47.4819L47.4624 6.93743Z" fill="#3B88EF"/>
<path d="M59.3423 11.546L59.3228 13.5531L54.0167 13.5726C53.5778 13.5726 53.2656 13.6798 53.0706 13.8844C52.8755 14.0988 52.778 14.3813 52.778 14.7321V15.3167C52.778 15.7259 52.895 16.0279 53.1291 16.252C53.3632 16.4761 53.7241 16.5833 54.2118 16.5833C54.6312 16.5833 55.0896 16.4956 55.5773 16.3202C56.0748 16.1448 56.5625 15.8915 57.0404 15.57C57.5281 15.2485 57.9573 14.8685 58.3279 14.43V15.9792C58.2011 16.2228 57.9963 16.5248 57.7134 16.8853C57.4305 17.2458 57.0697 17.6063 56.6307 17.9474C56.1918 18.2981 55.6846 18.5904 55.0896 18.834C54.5044 19.0776 53.8314 19.1945 53.0901 19.1945C52.3488 19.1945 51.705 19.0678 51.1296 18.8048C50.5541 18.5417 50.0859 18.1714 49.7445 17.6648C49.4031 17.1581 49.2373 16.5443 49.2373 15.7941V14.5567C49.2373 13.6019 49.5592 12.8614 50.2029 12.3255C50.8467 11.7896 51.7343 11.5265 52.8657 11.5265H59.3423V11.546ZM56.143 6.62569C57.1574 6.62569 58.0158 6.76209 58.6985 7.02516C59.3813 7.28823 59.908 7.74616 60.2787 8.37947C60.6396 9.02253 60.8249 9.88968 60.8249 11.0102V18.9022H57.967L57.4598 16.3105L57.2452 15.95V10.9809C57.2257 10.4158 57.0892 10.0066 56.8161 9.74353C56.5527 9.48046 56.0553 9.3538 55.3237 9.3538C54.6897 9.3538 53.9192 9.37329 52.9925 9.41226C52.0757 9.45123 51.1296 9.50969 50.1542 9.56815L49.8128 7.1908C50.398 7.07388 51.0613 6.97645 51.8221 6.8985C52.5829 6.82055 53.3437 6.75235 54.1045 6.69389C54.8653 6.63543 55.5481 6.6062 56.143 6.6062V6.62569Z" fill="#3B88EF"/>
<path d="M74.7342 6.93744V9.41223H69.8866C69.4867 9.41223 69.1843 9.50966 68.9892 9.69478C68.7941 9.8799 68.6771 10.1722 68.6283 10.5814C68.5503 11.244 68.4625 11.9065 68.3747 12.5788C68.2869 13.2511 68.1894 13.8844 68.0919 14.4885C67.9943 15.0925 67.8773 15.6187 67.7505 16.0474C67.5749 16.9048 67.2433 17.5576 66.7653 18.0253C66.2874 18.4832 65.7119 18.795 65.0389 18.9411C64.3659 19.097 63.6344 19.1262 62.8443 19.0288L62.4834 16.3884C62.854 16.3104 63.1759 16.2228 63.449 16.1448C63.7221 16.0669 63.9465 15.9402 64.1123 15.7843C64.2781 15.6284 64.4147 15.3848 64.5122 15.0828C64.6097 14.81 64.6975 14.4787 64.7756 14.0987C64.8536 13.7187 64.9316 13.2998 64.9901 12.8516C65.0584 12.4034 65.1072 11.926 65.156 11.4193C65.2047 10.9224 65.2535 10.4158 65.3023 9.91887C65.3998 8.93481 65.7022 8.19432 66.2094 7.68767C66.7166 7.19076 67.4871 6.93744 68.5015 6.93744H74.705H74.7342ZM75.0464 6.93744V18.9022H71.4862V6.93744H75.0464Z" fill="#3B88EF"/>
<path d="M88.5847 6.93744V9.69478H77.0166V6.93744H88.5847ZM84.6051 6.93744V18.9022H81.0157V6.93744H84.6051Z" fill="#3B88EF"/>
<path d="M102.308 6.93744V18.9022L99.0795 18.9216V12.647C99.0795 12.3255 99.0893 12.0039 99.1186 11.7019C99.1478 11.3998 99.1771 11.0686 99.2259 10.7081H99.1283C99.0308 11.0004 98.8942 11.3122 98.7186 11.6434C98.5431 11.9747 98.3675 12.2573 98.2115 12.5008L93.6759 18.8924H90.5449V6.93744H93.7442V13.3777C93.7442 13.67 93.7442 13.9526 93.7247 14.2351C93.7052 14.5177 93.6759 14.8197 93.6271 15.1413H93.6954C93.8222 14.8392 93.9685 14.5469 94.1246 14.2839C94.2806 14.0208 94.4367 13.7675 94.5928 13.5239L99.1966 6.93744H102.298H102.308Z" fill="#3B88EF"/>
<path d="M108.882 6.93744V18.9022H105.342V6.93744H108.882ZM113.681 11.3706V13.8162H108.736V11.3706H113.681ZM117.007 6.93744V18.9022H113.467V6.93744H117.007Z" fill="#3B88EF"/>
<path d="M132.295 11.6336L132.266 13.1828L126.638 13.2023C126.072 13.2218 125.673 13.3679 125.438 13.6505C125.204 13.9331 125.087 14.3228 125.087 14.8294V15.5797C125.087 16.1935 125.234 16.6417 125.536 16.9242C125.838 17.2068 126.297 17.3529 126.931 17.3529C127.379 17.3529 127.896 17.2652 128.472 17.0996C129.047 16.934 129.623 16.6709 130.208 16.3104C130.793 15.9597 131.32 15.5017 131.808 14.9561V16.4858C131.642 16.7099 131.398 16.973 131.066 17.275C130.735 17.577 130.335 17.8596 129.876 18.1421C129.418 18.4247 128.901 18.6585 128.335 18.8437C127.77 19.0288 127.165 19.1262 126.521 19.1262C125.829 19.1262 125.214 18.9995 124.678 18.756C124.141 18.5026 123.732 18.1324 123.439 17.6452C123.146 17.1581 123 16.554 123 15.8427V14.5566C123 13.631 123.283 12.9198 123.858 12.4131C124.434 11.9065 125.234 11.6531 126.268 11.6531H132.286L132.295 11.6336ZM129.242 6.81074C130.12 6.81074 130.852 6.92766 131.447 7.1615C132.042 7.39533 132.5 7.78506 132.803 8.34043C133.115 8.88605 133.261 9.63628 133.261 10.5911V18.9021H131.632L131.32 16.3299L131.203 16.0668V10.5911C131.183 9.86038 131.018 9.34398 130.696 9.0322C130.374 8.72042 129.74 8.55478 128.804 8.55478C128.17 8.55478 127.389 8.58401 126.463 8.65221C125.536 8.72042 124.619 8.78862 123.712 8.86656L123.517 7.33687C124.063 7.23944 124.668 7.15175 125.331 7.07381C125.994 6.99586 126.667 6.92766 127.34 6.87894C128.023 6.83022 128.647 6.80099 129.233 6.80099L129.242 6.81074Z" fill="#3B88EF"/>
<path d="M139.084 7.11277V10.6203C139.084 10.9808 139.064 11.3316 139.016 11.6824C138.967 12.0429 138.899 12.3839 138.801 12.7249C138.899 13.0659 138.967 13.4069 139.016 13.7382C139.064 14.0792 139.084 14.4007 139.084 14.7125V18.9021H137.026V7.11277H139.084ZM141.386 11.9844V13.5823H138.479V11.9844H141.386ZM146.936 7.11277C146.672 7.80454 146.429 8.43785 146.194 9.01271C145.96 9.58756 145.726 10.0942 145.492 10.5229C145.258 10.9614 144.995 11.3316 144.712 11.6336C144.429 11.9357 144.097 12.189 143.727 12.3741C143.356 12.5593 142.917 12.6762 142.42 12.7249V12.8028C142.956 12.8515 143.415 12.9685 143.805 13.1438C144.195 13.3192 144.536 13.5628 144.839 13.8843C145.141 14.1961 145.414 14.5956 145.658 15.0633C145.912 15.5309 146.165 16.0863 146.419 16.7196C146.672 17.3627 146.955 18.0837 147.267 18.9119H145.112C144.819 18.1519 144.556 17.4796 144.312 16.8853C144.068 16.3007 143.834 15.794 143.6 15.3751C143.366 14.9561 143.112 14.6151 142.839 14.3423C142.566 14.0695 142.244 13.8843 141.883 13.7577C141.522 13.6408 141.093 13.5725 140.606 13.5725V11.9747C141.191 11.9747 141.678 11.8675 142.088 11.6434C142.498 11.4193 142.839 11.1075 143.142 10.6885C143.444 10.2696 143.717 9.76294 143.98 9.15885C144.234 8.56452 144.517 7.87274 144.8 7.10303H146.936V7.11277Z" fill="#3B88EF"/>
<path d="M159.362 7.11278V8.8081H148.74V7.11278H159.362ZM155.09 7.11278V18.9119H153.032V7.11278H155.09Z" fill="#3B88EF"/>
<path d="M172.286 7.11277V18.9119H170.423V11.0783C170.423 10.825 170.423 10.5619 170.453 10.3183C170.472 10.065 170.482 9.80191 170.501 9.50961H170.453C170.355 9.73371 170.228 9.97729 170.072 10.2209C169.916 10.4742 169.77 10.6983 169.624 10.8834L163.605 18.9021H161.908V7.11277H163.771V14.9366C163.771 15.1997 163.771 15.453 163.761 15.6966C163.761 15.9499 163.732 16.213 163.703 16.5053H163.752C163.878 16.2617 164.015 16.0181 164.161 15.7745C164.308 15.5309 164.454 15.3263 164.6 15.1412L170.618 7.10303H172.286V7.11277Z" fill="#3B88EF"/>
<path d="M180.938 6.98612C182.167 6.98612 183.142 7.0738 183.864 7.24918C184.586 7.42456 185.103 7.73635 185.425 8.19428C185.747 8.64247 185.913 9.29527 185.913 10.1332C185.913 10.9711 185.717 11.6044 185.318 12.0331C184.918 12.4618 184.274 12.7151 183.367 12.7931V12.8613C184.469 12.9392 185.23 13.2413 185.669 13.7674C186.108 14.2936 186.322 15.034 186.322 15.9791C186.322 16.7878 186.166 17.4114 185.844 17.8596C185.522 18.3078 185.025 18.6196 184.342 18.7949C183.65 18.9703 182.733 19.058 181.592 19.058C180.772 19.058 180.05 19.058 179.436 19.0483C178.821 19.0483 178.256 19.0288 177.749 18.9995C177.241 18.9703 176.705 18.9508 176.139 18.9119L176.432 17.3822C176.754 17.4017 177.349 17.4114 178.226 17.4211C179.095 17.4211 180.128 17.4309 181.309 17.4309C182.04 17.4309 182.616 17.3822 183.055 17.275C183.494 17.1678 183.806 16.9827 183.991 16.7099C184.176 16.4371 184.274 16.0473 184.274 15.5504C184.274 14.7905 184.05 14.2741 183.591 13.9915C183.133 13.709 182.333 13.5628 181.192 13.5628H176.412V12.0818H181.192C181.874 12.0818 182.411 12.0331 182.821 11.9357C183.22 11.8383 183.513 11.6531 183.698 11.3901C183.874 11.127 183.962 10.7568 183.962 10.2891C183.962 9.8214 183.864 9.49013 183.669 9.24655C183.474 9.00297 183.152 8.83733 182.704 8.7399C182.255 8.64247 181.64 8.59375 180.889 8.59375C180.197 8.57427 179.563 8.57427 179.007 8.57427C178.451 8.57427 177.963 8.57427 177.544 8.58401C177.124 8.58401 176.763 8.61324 176.451 8.64247L176.159 7.11278C176.656 7.06406 177.134 7.03483 177.592 7.01535C178.041 6.99586 178.539 6.98612 179.075 6.97637C179.612 6.97637 180.236 6.96663 180.967 6.96663L180.938 6.98612ZM178.08 7.13226V18.9313H176.139V7.13226H178.08Z" fill="#3B88EF"/>
</svg>
