<svg width="47" height="48" viewBox="0 0 47 48" fill="none" xmlns="http://www.w3.org/2000/svg">
<path d="M19.1468 2.04605C21.1729 -0.682016 25.2787 -0.682016 27.3048 2.04605C28.5924 3.77969 30.8474 4.50761 32.9148 3.85694C36.168 2.83304 39.4896 5.23062 39.5147 8.62082C39.5307 10.7752 40.9244 12.681 42.9819 13.3618C46.2196 14.4332 47.4883 18.3125 45.5028 21.0699C44.2411 22.8222 44.2411 25.1778 45.5028 26.9301C47.4883 29.6875 46.2196 33.5668 42.9819 34.6382C40.9244 35.319 39.5307 37.2248 39.5147 39.3792C39.4896 42.7694 36.168 45.167 32.9148 44.1431C30.8474 43.4924 28.5924 44.2203 27.3048 45.9539C25.2787 48.682 21.1729 48.682 19.1468 45.9539C17.8592 44.2203 15.6042 43.4924 13.5369 44.1431C10.2836 45.167 6.962 42.7694 6.93688 39.3792C6.92092 37.2248 5.52725 35.319 3.46975 34.6382C0.232066 33.5668 -1.03669 29.6875 0.948783 26.9301C2.21052 25.1778 2.21052 22.8222 0.948784 21.0699C-1.03669 18.3125 0.232066 14.4332 3.46975 13.3618C5.52725 12.681 6.92092 10.7752 6.93688 8.62082C6.962 5.23062 10.2836 2.83304 13.5369 3.85694C15.6042 4.50761 17.8592 3.77969 19.1468 2.04605Z" fill="#3B75BB"/>
<path d="M20.0927 5.17589C21.6488 3.07028 24.8026 3.07028 26.3587 5.17589C27.6018 6.85789 29.7784 7.56374 31.7736 6.93267C34.2733 6.14204 36.8235 7.99366 36.8428 10.6088C36.8582 12.6997 38.204 14.5484 40.1898 15.2088C42.6768 16.0359 43.6502 19.0295 42.126 21.1567C40.9078 22.857 40.9078 25.1428 42.126 26.8431C43.6502 28.9704 42.6768 31.9639 40.1898 32.791C38.204 33.4514 36.8582 35.3001 36.8428 37.391C36.8235 40.0062 34.2733 41.8578 31.7736 41.0671C29.7784 40.4361 27.6018 41.1419 26.3587 42.8239C24.8026 44.9295 21.6488 44.9295 20.0927 42.8239C18.8496 41.1419 16.673 40.4361 14.6778 41.0671C12.1782 41.8578 9.62791 40.0062 9.60863 37.391C9.59321 35.3001 8.2474 33.4514 6.26157 32.791C3.77458 31.9639 2.80125 28.9704 4.3254 26.8431C5.54365 25.1428 5.54365 22.857 4.3254 21.1567C2.80125 19.0295 3.77458 16.0359 6.26157 15.2088C8.2474 14.5484 9.59321 12.6997 9.60863 10.6088C9.62791 7.99366 12.1782 6.14204 14.6778 6.93267C16.673 7.56374 18.8496 6.85789 20.0927 5.17589Z" fill="#3B88EF" stroke="white"/>
<path d="M18.2345 32.6251C17.9467 32.6245 17.6639 32.5491 17.4141 32.4062C16.8516 32.0874 16.502 31.4687 16.502 30.797V17.2032C16.502 16.5296 16.8516 15.9127 17.4141 15.594C17.6699 15.447 17.9604 15.3714 18.2554 15.3751C18.5503 15.3788 18.8389 15.4617 19.0909 15.6151L30.7088 22.5695C30.951 22.7213 31.1506 22.9321 31.2889 23.1822C31.4273 23.4322 31.4999 23.7134 31.4999 23.9991C31.4999 24.2849 31.4273 24.566 31.2889 24.8161C31.1506 25.0662 30.951 25.277 30.7088 25.4288L19.089 32.3851C18.8311 32.541 18.5358 32.6239 18.2345 32.6251Z" fill="white"/>
</svg>
