<svg width="1450" height="254" viewBox="0 0 1450 254" fill="none" xmlns="http://www.w3.org/2000/svg">
<path d="M-69.5834 18.3842L-92.1858 40.9698C-105.512 54.2864 -113 72.3536 -113 91.1932V254H1450V91.1932C1450 72.3536 1442.51 54.2864 1429.19 40.9698L1406.58 18.3842C1382.6 -5.58146 1343.73 -5.58145 1319.75 18.3842C1295.77 42.3499 1256.9 42.3499 1232.92 18.3842C1208.93 -5.58146 1170.07 -5.58146 1146.08 18.3842C1122.1 42.3499 1083.23 42.3499 1059.25 18.3842C1035.27 -5.58147 996.4 -5.58145 972.417 18.3842C948.433 42.3499 909.567 42.3499 885.583 18.3842C861.6 -5.58146 822.734 -5.58145 798.75 18.3842C774.766 42.3499 735.9 42.3499 711.917 18.3842C687.933 -5.58146 649.067 -5.58145 625.083 18.3842C601.1 42.3499 562.234 42.3499 538.25 18.3842C514.266 -5.58146 475.4 -5.58145 451.417 18.3842C427.433 42.3499 388.567 42.3499 364.583 18.3842C340.6 -5.58146 301.734 -5.58147 277.75 18.3842C253.766 42.3499 214.9 42.3499 190.917 18.3842C166.933 -5.58147 128.067 -5.58146 104.083 18.3842C80.0997 42.3499 41.2336 42.3499 17.25 18.3842C-6.7336 -5.58146 -45.5998 -5.58143 -69.5834 18.3842Z" fill="#3B88EF"/>
</svg>
