<svg width="120" height="129" viewBox="0 0 120 129" fill="none" xmlns="http://www.w3.org/2000/svg">
<g clip-path="url(#clip0_105_13)">
<path d="M335.472 98.4444L348.137 85.7683C359.575 74.3197 366 58.7984 366 42.6151L366 -0.5L-733 -0.500096L-733 42.615C-733 58.7983 -726.575 74.3197 -715.137 85.7682L-702.472 98.4443C-685.617 115.315 -658.272 115.315 -641.417 98.4443C-624.561 81.5735 -597.217 81.5735 -580.361 98.4444C-563.506 115.315 -536.161 115.315 -519.306 98.4444C-502.45 81.5735 -475.105 81.5735 -458.25 98.4444C-441.394 115.315 -414.05 115.315 -397.194 98.4444C-380.339 81.5735 -352.994 81.5735 -336.139 98.4444C-319.283 115.315 -291.939 115.315 -275.083 98.4444C-258.228 81.5735 -230.883 81.5735 -214.028 98.4444C-197.172 115.315 -169.828 115.315 -152.972 98.4444C-136.117 81.5735 -108.772 81.5735 -91.9167 98.4444C-75.0611 115.315 -47.7166 115.315 -30.8611 98.4444C-14.0056 81.5736 13.3389 81.5735 30.1945 98.4444C47.05 115.315 74.3945 115.315 91.25 98.4444C108.106 81.5736 135.45 81.5736 152.306 98.4444C169.161 115.315 196.506 115.315 213.361 98.4444C230.217 81.5736 257.561 81.5736 274.417 98.4444C291.272 115.315 318.617 115.315 335.472 98.4444Z" fill="#FFF9D5"/>
</g>
<defs>
<clipPath id="clip0_105_13">
<rect width="120" height="129" fill="white" transform="translate(120 129) rotate(-180)"/>
</clipPath>
</defs>
</svg>
