<svg width="120" height="129" viewBox="0 0 120 129" fill="none" xmlns="http://www.w3.org/2000/svg">
<g clip-path="url(#clip0_105_3)">
<path d="M-215.472 30.5556L-228.137 43.2317C-239.575 54.6803 -246 70.2016 -246 86.3849V129.5H853V86.3849C853 70.2016 846.575 54.6802 835.137 43.2317L822.472 30.5556C805.617 13.6847 778.272 13.6847 761.417 30.5556C744.561 47.4264 717.217 47.4264 700.361 30.5556C683.506 13.6847 656.161 13.6847 639.306 30.5556C622.45 47.4264 595.105 47.4264 578.25 30.5556C561.394 13.6847 534.05 13.6847 517.194 30.5556C500.339 47.4264 472.994 47.4264 456.139 30.5556C439.283 13.6847 411.939 13.6847 395.083 30.5556C378.228 47.4264 350.883 47.4264 334.028 30.5556C317.172 13.6847 289.828 13.6847 272.972 30.5556C256.117 47.4264 228.772 47.4264 211.917 30.5556C195.061 13.6847 167.717 13.6847 150.861 30.5556C134.006 47.4264 106.661 47.4264 89.8055 30.5556C72.95 13.6847 45.6055 13.6847 28.75 30.5555C11.8945 47.4264 -15.45 47.4264 -32.3056 30.5555C-49.1611 13.6847 -76.5056 13.6847 -93.3611 30.5556C-110.217 47.4264 -137.561 47.4264 -154.417 30.5556C-171.272 13.6847 -198.617 13.6847 -215.472 30.5556Z" fill="#3B75BB"/>
</g>
<defs>
<clipPath id="clip0_105_3">
<rect width="120" height="129" fill="white"/>
</clipPath>
</defs>
</svg>
