<svg width="82" height="82" viewBox="0 0 82 82" fill="none" xmlns="http://www.w3.org/2000/svg">
<g clip-path="url(#clip0_71_4)">
<path d="M34.7913 49.9444C34.1751 49.0647 33.253 48.5532 32.2869 48.54C32.7117 47.6714 32.672 46.6153 32.1681 45.6673C31.7478 44.8758 31.0964 44.3643 30.4648 44.3334C29.1972 44.2717 26.8689 48.0043 25.225 50.963C26.2307 47.7397 27.3222 43.4868 26.4067 42.6115C25.9512 42.175 25.1304 42.0537 24.2677 42.294C23.2334 42.5829 22.4433 43.2817 22.1066 44.1879C21.431 43.4956 20.4253 43.1803 19.3646 43.3369C18.48 43.4692 17.7801 43.9123 17.5403 44.4988C17.0429 45.7136 19.9632 49.3425 22.2409 51.911C19.4416 49.9841 15.5289 47.5567 14.3955 48.1983C13.8454 48.5091 13.491 49.2588 13.469 50.1561C13.4426 51.2298 13.8806 52.191 14.6486 52.7775C13.7903 53.2229 13.1962 54.0959 13.0377 55.1586C12.9057 56.0449 13.1257 56.8452 13.6143 57.2465C14.5606 58.0225 18.3259 56.5983 21.6577 55.088C18.8563 57.5 15.9448 60.3463 16.2507 61.5413C16.4069 62.1542 17.0385 62.6921 17.8968 62.9457C18.9267 63.2499 19.9654 63.0758 20.7312 62.4849C20.9381 63.4307 21.6247 64.231 22.6084 64.661C23.4292 65.0181 24.2567 65.0115 24.7695 64.6433C25.3878 64.198 25.5331 62.5114 25.2096 59.4865C25.0577 58.0644 24.8267 56.5961 24.6264 55.4474C25.0313 56.5432 25.5705 57.9299 26.1537 59.2329C27.3904 61.9977 28.3587 63.3756 29.1158 63.4484C29.3424 63.4704 29.5823 63.4307 29.82 63.3359C30.2403 63.1706 30.6562 62.8354 30.9929 62.3725C31.6267 61.506 31.8182 60.4676 31.5233 59.546C32.4806 59.6717 33.4665 59.2969 34.2037 58.5164C34.8177 57.8638 35.095 57.0811 34.9211 56.4726C34.602 55.3438 30.9885 54.3869 27.5665 53.7255C31.0347 53.5646 34.7341 53.1391 35.2094 52.0698C35.4669 51.4921 35.3084 50.6786 34.7935 49.9444H34.7913Z" fill="#DE8BC0"/>
<path d="M68.2346 59.6341C67.3213 58.3333 65.9591 57.5771 64.5309 57.555C65.1581 56.2697 65.1009 54.7087 64.357 53.3043C63.7365 52.1336 62.7704 51.3774 61.8373 51.3311C59.9623 51.2385 56.5183 56.7591 54.0909 61.1355C55.5786 56.3689 57.1917 50.081 55.8383 48.7846C55.1627 48.1386 53.9523 47.9578 52.6759 48.315C51.1464 48.7405 49.9779 49.7745 49.4805 51.1172C48.4814 50.0942 46.9938 49.6268 45.4247 49.8583C44.1153 50.0523 43.081 50.7115 42.7267 51.5758C41.9895 53.3704 46.3094 58.7389 49.6764 62.5377C45.537 59.687 39.7514 56.0999 38.0745 57.0457C37.2602 57.5043 36.7365 58.6133 36.7035 59.9383C36.6661 61.5279 37.3109 62.9478 38.4464 63.8164C37.1788 64.4756 36.2986 65.7654 36.0631 67.3374C35.8672 68.6492 36.1929 69.8309 36.9169 70.424C38.3166 71.5704 43.8843 69.4649 48.8115 67.2315C44.6677 70.7966 40.3632 75.0076 40.8143 76.7736C41.0454 77.6797 41.9785 78.4756 43.2483 78.8482C44.7711 79.298 46.3072 79.04 47.4383 78.167C47.7442 79.5648 48.7609 80.7509 50.2134 81.3859C51.4281 81.915 52.6517 81.904 53.4109 81.3594C54.3264 80.7002 54.5399 78.2067 54.0623 73.7333C53.8379 71.63 53.4968 69.4583 53.1997 67.7607C53.7982 69.3811 54.5949 71.4315 55.4576 73.3607C57.2863 77.4482 58.7189 79.4876 59.8369 79.5956C60.1714 79.6287 60.5257 79.5692 60.8756 79.4303C61.4962 79.1856 62.1124 78.6895 62.6119 78.006C63.5494 76.7251 63.8311 75.1884 63.3953 73.8259C64.8126 74.0111 66.2694 73.4577 67.3587 72.3024C68.2676 71.3389 68.6747 70.1815 68.4195 69.2819C67.9463 67.613 62.6031 66.1997 57.5438 65.2208C62.6735 64.9827 68.1422 64.3522 68.8486 62.7736C69.2293 61.9204 68.9938 60.7166 68.2324 59.6319L68.2346 59.6341Z" fill="#DE8BC0"/>
<path d="M68.5185 20.988C67.9133 19.0434 66.5467 17.5817 64.8126 16.9952C66.0824 15.6724 66.6238 13.7455 66.265 11.7392C65.9658 10.0658 65.0833 8.76278 63.9632 8.34167C61.7119 7.49285 55.3431 12.8768 50.6645 17.262C54.3484 12.028 58.7828 4.98829 57.6362 2.87175C57.0663 1.81789 55.6578 1.1212 53.9611 1.05506C51.9277 0.973486 50.0968 1.77601 48.9634 3.21789C48.1448 1.57758 46.5141 0.4201 44.5071 0.0871865C42.8324 -0.190609 41.3139 0.206242 40.5415 1.12341C38.9394 3.02608 42.1083 11.2762 44.7293 17.2355C40.7946 12.1294 35.1388 5.47333 32.7203 5.96939C31.5474 6.20971 30.4712 7.35616 29.9145 8.9612C29.2455 10.8859 29.4765 12.8746 30.5218 14.3804C28.7151 14.6869 27.1372 15.9127 26.2328 17.7404C25.4801 19.2639 25.4163 20.8358 26.0655 21.8434C27.3243 23.7924 34.9452 23.4132 41.8333 22.6239C35.3787 25.3467 28.4752 28.7927 28.3344 31.1275C28.2618 32.3247 29.0892 33.6607 30.491 34.6176C32.1723 35.764 34.1507 36.0551 35.8739 35.4333C35.7 37.2588 36.4746 39.1064 38.0019 40.4535C39.2761 41.5779 40.7747 42.0453 41.9147 41.6793C43.2901 41.2362 44.5269 38.2752 45.6976 32.6289C46.2478 29.9744 46.6813 27.1899 46.985 25.0006C47.0796 27.2119 47.2491 30.0295 47.5462 32.7215C48.1756 38.4295 49.1263 41.4831 50.4489 42.0541C50.845 42.2261 51.3005 42.2922 51.7825 42.2614C52.6363 42.2062 53.5804 41.8447 54.4585 41.2075C56.1046 40.0125 57.0509 38.2488 57.0531 36.4144C58.7102 37.1993 60.7062 37.0957 62.4887 36.1146C63.9764 35.2966 64.927 34.0443 64.9689 32.845C65.0459 30.6226 59.0777 26.7952 53.2855 23.6116C59.6388 25.3379 66.5621 26.7203 68.041 25.0689C68.8398 24.176 69.0247 22.6151 68.5207 20.9902L68.5185 20.988Z" fill="#DE8BC0"/>
</g>
<defs>
<clipPath id="clip0_71_4">
<rect width="82" height="82" fill="white"/>
</clipPath>
</defs>
</svg>
