<svg width="72" height="75" viewBox="0 0 72 75" fill="none" xmlns="http://www.w3.org/2000/svg">
<path d="M33.8837 41.3541C35.4937 48.5356 33.3611 56.0803 28.1121 61.2672C26.8222 62.5404 28.6582 64.6953 29.9528 63.4127C35.9127 57.5232 38.4925 49.0025 36.6565 40.8024C36.261 39.0294 33.4882 39.5717 33.8837 41.3541Z" fill="#DE8BC0"/>
<path d="M24.1112 74.64C28.9107 74.64 32.8015 70.7428 32.8015 65.9353C32.8015 61.1279 28.9107 57.2307 24.1112 57.2307C19.3117 57.2307 15.4209 61.1279 15.4209 65.9353C15.4209 70.7428 19.3117 74.64 24.1112 74.64Z" fill="#3B86ED"/>
<path d="M39.3413 35.0118C37.5288 34.9316 37.7925 37.7515 39.5814 37.8316C49.6557 38.289 58.2472 46.9465 58.9674 56.9431C59.0992 58.7586 61.9097 58.5181 61.7826 56.7027C60.9446 45.0226 50.9409 35.5399 39.3413 35.0165V35.0118Z" fill="#DE8BC0"/>
<path d="M62.3619 66.5625C67.1614 66.5625 71.0522 62.6653 71.0522 57.8578C71.0522 53.0504 67.1614 49.1532 62.3619 49.1532C57.5624 49.1532 53.6716 53.0504 53.6716 57.8578C53.6716 62.6653 57.5624 66.5625 62.3619 66.5625Z" fill="#3B86ED"/>
<path d="M60.5104 11.6424C60.581 9.81752 57.7564 9.92126 57.6858 11.732C57.328 20.7384 50.5443 28.5612 41.8023 30.4474C40.0228 30.8294 40.8466 33.5407 42.612 33.1588C52.6392 30.9944 60.1008 21.8512 60.5104 11.6424Z" fill="#DE8BC0"/>
<path d="M59.6161 17.4093C64.4156 17.4093 68.3064 13.5121 68.3064 8.70463C68.3064 3.8972 64.4156 0 59.6161 0C54.8166 0 50.9258 3.8972 50.9258 8.70463C50.9258 13.5121 54.8166 17.4093 59.6161 17.4093Z" fill="#3B86ED"/>
<path d="M32.7691 34.1253C30.194 22.4311 21.353 12.8022 9.98881 9.14309C8.2564 8.58667 7.49377 11.3122 9.22147 11.8639C19.6818 15.2307 27.6801 24.1286 30.0386 34.8562C30.4294 36.6339 33.1598 35.903 32.7691 34.1253Z" fill="#DE8BC0"/>
<path d="M13.0497 22.0492C17.8492 22.0492 21.74 18.152 21.74 13.3445C21.74 8.53709 17.8492 4.63989 13.0497 4.63989C8.25015 4.63989 4.35938 8.53709 4.35938 13.3445C4.35938 18.152 8.25015 22.0492 13.0497 22.0492Z" fill="#3B86ED"/>
<path d="M34.2 33.5312C22.2755 32.6636 10.5394 38.4023 3.79337 48.2669C2.7624 49.7711 5.15388 51.2847 6.18014 49.7852C12.3848 40.7034 23.1841 35.5683 34.1247 36.3605C35.9371 36.4925 36.0171 33.6633 34.2 33.5312Z" fill="#DE8BC0"/>
<path d="M8.69005 55.2362C13.4896 55.2362 17.3803 51.339 17.3803 46.5315C17.3803 41.7241 13.4896 37.8269 8.69005 37.8269C3.89053 37.8269 -0.000244141 41.7241 -0.000244141 46.5315C-0.000244141 51.339 3.89053 55.2362 8.69005 55.2362Z" fill="#3B86ED"/>
</svg>
