<svg width="83" height="82" viewBox="0 0 83 82" fill="none" xmlns="http://www.w3.org/2000/svg">
<g clip-path="url(#clip0_71_50)">
<path d="M65.9062 46.7002C65.9062 56.947 57.65 65.2535 47.4652 65.2535C37.2804 65.2535 29.0242 56.947 29.0242 46.7002C29.0242 36.4534 47.4673 4 47.4673 4C47.4673 4 65.9083 36.4554 65.9083 46.7002H65.9062Z" fill="#FFC438"/>
<path d="M78.5 78.8292C69.0053 51.5911 39.4163 37.2779 12.3411 46.8304" stroke="#327770" stroke-width="2" stroke-miterlimit="10"/>
<path d="M59.9599 48.5825C58.8303 49.9504 58.5962 51.7667 59.1877 53.3164C57.5652 53.0147 55.8318 53.5768 54.7022 54.9447C53.0386 56.9573 53.3118 59.9451 55.3122 61.6188C57.3126 63.2925 60.2824 63.0177 61.9459 61.0051C63.0755 59.6373 63.3097 57.821 62.7182 56.2712C64.3407 56.5729 66.0741 56.0109 67.2036 54.643C68.8672 52.6304 68.5941 49.6425 66.5937 47.9688C64.5933 46.2951 61.6235 46.5699 59.9599 48.5825Z" fill="#327770"/>
<path d="M45.7172 41.8155C44.8895 43.3859 45.0292 45.2125 45.9226 46.6072C44.2734 46.6444 42.692 47.5516 41.8622 49.1219C40.6423 51.4341 41.5172 54.3042 43.8154 55.5296C46.1136 56.7549 48.9663 55.8767 50.1842 53.5645C51.0119 51.9941 50.8722 50.1675 49.9788 48.7727C51.628 48.7355 53.2094 47.8284 54.0392 46.258C55.2591 43.9458 54.3842 41.0758 52.086 39.8504C49.7878 38.6231 46.9351 39.5033 45.7172 41.8155Z" fill="#327770"/>
<path d="M30.6525 39.0156C30.2664 40.7513 30.8804 42.4746 32.1086 43.5842C30.5272 44.0574 29.2395 45.353 28.8534 47.0887C28.2845 49.6426 29.8803 52.178 32.4187 52.7503C34.9572 53.3227 37.4772 51.7172 38.0461 49.1632C38.4323 47.4275 37.8182 45.7042 36.59 44.5946C38.1714 44.1215 39.4592 42.8259 39.8453 41.0902C40.4142 38.5362 38.8184 36.0009 36.2799 35.4285C33.7414 34.8562 31.2214 36.4617 30.6525 39.0156Z" fill="#327770"/>
<path d="M15.8715 42.2576C16.1652 43.6421 17.1777 44.6835 18.4305 45.074C17.4447 45.9439 16.9394 47.3118 17.2331 48.6942C17.6644 50.7315 19.6546 52.0292 21.6796 51.5973C23.7047 51.1634 24.9944 49.1612 24.5652 47.1238C24.2715 45.7394 23.259 44.6979 22.0062 44.3074C22.992 43.4375 23.4972 42.0696 23.2035 40.6872C22.7722 38.6499 20.7821 37.3522 18.7571 37.7841C16.732 38.218 15.4422 40.2203 15.8715 42.2576Z" fill="#327770"/>
<path d="M4.94534 43.6876C3.8404 45.2725 4.88989 46.4937 7.00941 47.3408C8.69147 48.0124 11.2279 47.2499 12.2117 46.9049C11.2751 47.3615 8.94614 48.6302 8.23142 50.3019C7.3298 52.4095 7.44687 54.0191 9.34458 54.3518C13.5631 55.0916 12.6861 47.3243 12.6163 46.754L12.6245 46.7499C12.6245 46.7499 12.6183 46.7437 12.6142 46.7354V46.7168L12.604 46.721C12.2528 46.2684 7.40785 40.1584 4.9474 43.6856L4.94534 43.6876Z" fill="#327770"/>
</g>
<defs>
<clipPath id="clip0_71_50">
<rect width="82" height="82" fill="white" transform="translate(0.5)"/>
</clipPath>
</defs>
</svg>
