<svg width="69" height="79" viewBox="0 0 69 79" fill="none" xmlns="http://www.w3.org/2000/svg">
<g clip-path="url(#clip0_71_18)">
<path d="M33.1747 37.7415C33.356 37.9649 34.4613 37.3652 34.806 37.4622C39.1173 38.6646 55.9588 42.1954 66.8398 27.8137C75.1595 15.3018 56.8413 10.8715 56.1252 10.7039C55.831 10.0336 48.165 -7.01152 37.2008 3.3161C24.8164 16.4865 31.3592 32.2822 33.3114 36.2363C33.4629 36.545 33.041 37.5769 33.1777 37.7415H33.1747Z" fill="#327770"/>
<path d="M24.8168 18.0241L28.6409 40.064L21.8395 18.7503C15.2788 20.6935 9.35105 24.8093 5.25954 30.8065L23.7144 43.7153L3.66988 33.3994C0.196411 39.7612 -0.742526 46.8698 0.561883 53.5255L22.8379 49.742L1.2958 56.4712C3.25984 62.9624 7.41969 68.8273 13.4812 72.8755L26.5282 54.6162L16.1049 74.4483C22.5348 77.885 29.7165 78.811 36.4465 77.5234L32.6224 55.4835L39.4238 76.7972C45.9845 74.854 51.9122 70.7382 56.0037 64.741L37.5489 51.8322L57.5934 62.1451C61.0669 55.7833 62.0028 48.6777 60.7014 42.019L38.4254 45.8026L59.9675 39.0733C58.0034 32.5822 53.8436 26.7172 47.7821 22.6691L34.735 40.9284L45.1584 21.0963C38.7285 17.6596 31.5468 16.7335 24.8168 18.0212V18.0241Z" fill="#FFC438"/>
<path d="M27.5406 43.5925C28.5828 42.7684 27.0201 39.1196 24.0502 35.4426C21.0803 31.7656 17.8278 29.4529 16.7856 30.2769C15.7433 31.101 17.306 34.7498 20.276 38.4268C23.2459 42.1038 26.4984 44.4166 27.5406 43.5925Z" fill="#FFF9D5"/>
<path d="M25.5525 47.108C25.7005 45.7961 21.9877 44.3093 17.2598 43.7871C12.5319 43.2649 8.57912 43.905 8.4311 45.2168C8.28308 46.5287 11.9958 48.0155 16.7238 48.5377C21.4517 49.06 25.4044 48.4198 25.5525 47.108Z" fill="#FFF9D5"/>
<path d="M21.4367 58.1717C25.153 55.2333 27.4906 52.0153 26.6577 50.9841C25.8248 49.9529 22.1369 51.4991 18.4205 54.4375C14.7041 57.376 12.3666 60.594 13.1995 61.6252C14.0324 62.6564 17.7203 61.1102 21.4367 58.1717Z" fill="#FFF9D5"/>
<path d="M31.6547 61.6896C32.1825 57.0117 31.5355 53.1009 30.2096 52.9544C28.8837 52.808 27.381 56.4814 26.8532 61.1592C26.3253 65.837 26.9723 69.7479 28.2982 69.8943C29.6241 70.0408 31.1269 66.3674 31.6547 61.6896Z" fill="#FFF9D5"/>
<path d="M44.8834 65.1732C45.9256 64.3491 44.3629 60.7003 41.393 57.0233C38.423 53.3463 35.1706 51.0336 34.1283 51.8576C33.0861 52.6817 34.6488 56.3305 37.6187 60.0075C40.5887 63.6845 43.8412 65.9972 44.8834 65.1732Z" fill="#FFF9D5"/>
<path d="M53.24 50.2344C53.388 48.9226 49.6752 47.4358 44.9473 46.9135C40.2194 46.3913 36.2666 47.0314 36.1186 48.3433C35.9706 49.6552 39.6833 51.142 44.4113 51.6642C49.1392 52.1864 53.0919 51.5463 53.24 50.2344Z" fill="#FFF9D5"/>
<path d="M43.2482 41.0127C46.9646 38.0742 49.3021 34.8562 48.4692 33.825C47.6363 32.7938 43.9484 34.34 40.232 37.2785C36.5156 40.2169 34.1781 43.4349 35.011 44.4661C35.8439 45.4973 39.5318 43.9511 43.2482 41.0127Z" fill="#FFF9D5"/>
<path d="M34.8149 34.2922C35.3427 29.6144 34.6957 25.7035 33.3698 25.5571C32.0439 25.4106 30.5411 29.084 30.0133 33.7619C29.4855 38.4397 30.1325 42.3505 31.4584 42.497C32.7843 42.6434 34.287 38.97 34.8149 34.2922Z" fill="#FFF9D5"/>
<path d="M30.6288 58.5203C36.6283 58.5203 41.4919 53.7083 41.4919 47.7723C41.4919 41.8363 36.6283 37.0243 30.6288 37.0243C24.6292 37.0243 19.7656 41.8363 19.7656 47.7723C19.7656 53.7083 24.6292 58.5203 30.6288 58.5203Z" fill="#FF7436"/>
<path d="M26.1005 53.7313C26.6453 53.7313 27.087 53.2944 27.087 52.7553C27.087 52.2163 26.6453 51.7793 26.1005 51.7793C25.5557 51.7793 25.114 52.2163 25.114 52.7553C25.114 53.2944 25.5557 53.7313 26.1005 53.7313Z" fill="#FFC438"/>
<path d="M23.7828 49.8948C24.1996 49.8948 24.5375 49.5605 24.5375 49.1481C24.5375 48.7357 24.1996 48.4014 23.7828 48.4014C23.366 48.4014 23.0281 48.7357 23.0281 49.1481C23.0281 49.5605 23.366 49.8948 23.7828 49.8948Z" fill="#FFC438"/>
<path d="M31.6394 54.481C32.217 54.481 32.6853 54.0177 32.6853 53.4462C32.6853 52.8747 32.217 52.4114 31.6394 52.4114C31.0618 52.4114 30.5935 52.8747 30.5935 53.4462C30.5935 54.0177 31.0618 54.481 31.6394 54.481Z" fill="#FFC438"/>
<path d="M29.2475 50.5534C29.6954 50.5534 30.0586 50.1941 30.0586 49.7508C30.0586 49.3076 29.6954 48.9482 29.2475 48.9482C28.7995 48.9482 28.4363 49.3076 28.4363 49.7508C28.4363 50.1941 28.7995 50.5534 29.2475 50.5534Z" fill="#FFC438"/>
<path d="M36.3459 49.9272C36.8268 49.9272 37.2165 49.5416 37.2165 49.0658C37.2165 48.5901 36.8268 48.2045 36.3459 48.2045C35.8651 48.2045 35.4753 48.5901 35.4753 49.0658C35.4753 49.5416 35.8651 49.9272 36.3459 49.9272Z" fill="#FFC438"/>
<path d="M32.6282 46.9814C33.109 46.9814 33.4988 46.5958 33.4988 46.12C33.4988 45.6443 33.109 45.2587 32.6282 45.2587C32.1473 45.2587 31.7576 45.6443 31.7576 46.12C31.7576 46.5958 32.1473 46.9814 32.6282 46.9814Z" fill="#FFC438"/>
<path d="M24.8911 46.0466C25.3719 46.0466 25.7617 45.6609 25.7617 45.1852C25.7617 44.7095 25.3719 44.3239 24.8911 44.3239C24.4103 44.3239 24.0205 44.7095 24.0205 45.1852C24.0205 45.6609 24.4103 46.0466 24.8911 46.0466Z" fill="#FFC438"/>
<path d="M28.6226 46.8991C28.8475 46.8991 29.0297 46.7188 29.0297 46.4964C29.0297 46.274 28.8475 46.0936 28.6226 46.0936C28.3978 46.0936 28.2156 46.274 28.2156 46.4964C28.2156 46.7188 28.3978 46.8991 28.6226 46.8991Z" fill="#FFC438"/>
</g>
<defs>
<clipPath id="clip0_71_18">
<rect width="69" height="78.079" fill="white"/>
</clipPath>
</defs>
</svg>
