<svg width="77" height="43" viewBox="0 0 77 43" fill="none" xmlns="http://www.w3.org/2000/svg">
<path d="M27.7459 13.8478C27.2999 12.7297 23.9419 12.4731 23.3281 11.556C22.7016 10.6132 24.269 8.1439 23.394 7.21179C22.5104 6.27753 19.7748 7.50681 18.8934 6.78635C18.0098 6.0616 18.3815 2.93602 17.3493 2.28396C16.2915 1.62977 14.363 3.74414 13.4285 3.25029C13.0313 3.04505 11.9077 2.0659 10.661 0.934959C8.84291 -0.711212 6.4641 -0.0783985 6.61278 2.01031C6.71685 3.4598 6.75083 4.74039 6.57454 5.08032C6.17949 5.84568 3.23147 5.09314 2.8258 5.86706C2.435 6.60463 4.70973 8.83017 4.36778 9.68318C4.04069 10.5447 0.895148 10.1108 0.608417 10.9317C0.332306 11.8018 3.13802 13.7045 3.05944 14.6388C2.99784 15.6158 -0.111596 16.1011 0.00309622 17.1038C0.247349 18.3117 3.62653 19.2224 4.03857 20.1994C4.51221 21.3175 2.38827 23.3293 3.09979 24.3662C3.89414 25.5121 6.95473 24.8493 7.78519 25.6681C8.6645 26.5447 8.09103 29.6125 9.15937 30.3416C10.2766 31.0877 12.2858 29.0011 13.2925 29.4928C14.397 30.0209 15.134 33.3047 16.1492 33.5976C17.0094 33.8242 17.7146 32.8343 18.2923 32.0925C19.6006 35.791 21.4378 37.5462 21.4378 37.5462C22.6888 37.7344 23.8549 36.7638 23.7572 36.674C22.4743 35.4768 21.0109 33.1999 19.8937 31.2715C20.9047 31.4126 22.6931 32.0177 23.2071 31.3036C23.6743 30.6751 21.8987 28.0711 22.4828 27.216C22.9883 26.4549 25.9746 27.3442 26.4439 26.5554C26.89 25.7986 24.5749 23.5303 24.8786 22.5853C25.1505 21.6617 28.347 21.8178 28.5084 20.8408C28.638 19.8681 25.5498 18.2219 25.4138 17.1423C25.2737 16.1161 28.1218 15.0279 27.7438 13.8499L27.7459 13.8478Z" fill="#5AABA1"/>
<path d="M75.9872 19.789C78.1175 17.4801 76.6796 14.8462 73.5404 15.3101C71.3613 15.6329 69.4264 15.8531 68.8741 15.6971C67.6316 15.3529 68.1796 11.8767 66.9244 11.5197C65.7265 11.1776 62.8103 14.0894 61.4446 13.82C60.0704 13.5656 60.0938 9.90769 58.7918 9.6939C57.4155 9.49935 55.0941 12.9777 53.6646 13.0183C52.1715 13.0846 50.8058 9.5977 49.3063 9.86707C47.5222 10.316 46.8235 14.3096 45.4259 14.9189C43.8245 15.618 40.3433 13.4694 38.9139 14.4293C37.3359 15.4983 38.9607 18.9082 37.886 19.9707C36.7327 21.0995 31.9623 20.875 31.0724 22.1984C30.1655 23.5816 33.7358 25.5869 33.1942 26.8077C32.6143 28.1438 27.7824 29.4501 27.5445 30.6537C27.3512 31.8167 29.5368 32.5244 30.7665 33.1294C28.2348 34.4057 23.7491 36.6312 22.0096 37.2747C19.5267 38.194 24.9045 39.2566 25.0553 39.1882C26.491 38.5361 29.6897 36.2785 31.8264 34.7221C31.786 35.9172 31.2975 37.9332 32.4487 38.4078C33.4979 38.8546 37.0874 36.4559 38.5061 37.0054C39.7635 37.4757 39.0159 41.0182 40.3094 41.4436C41.5455 41.8455 44.5211 38.8824 46.0185 39.0941C47.4734 39.2758 47.8812 42.9551 49.3977 43C50.8993 43.0107 52.7747 39.2459 54.3847 38.9423C55.9118 38.6366 58.1419 41.7429 59.8517 41.1465C61.4574 40.4794 61.1706 36.6013 62.4344 35.7697C63.7385 34.9209 67.7994 36.3683 69.0398 35.2331C70.2802 34.0914 67.861 31.1347 68.7743 30.0252C69.6961 28.9113 74.5132 28.8985 75.2948 27.6265C76.0743 26.3245 72.4763 24.4175 73.0349 23.278C73.2664 22.7949 74.5238 21.371 75.9872 19.7869V19.789Z" fill="#327770"/>
</svg>
