<svg width="83" height="82" viewBox="0 0 83 82" fill="none" xmlns="http://www.w3.org/2000/svg">
<g clip-path="url(#clip0_71_102)">
<path d="M47.8191 22.9046C52.213 22.9046 55.7749 19.3442 55.7749 14.9523C55.7749 10.5604 52.213 7 47.8191 7C43.4252 7 39.8633 10.5604 39.8633 14.9523C39.8633 19.3442 43.4252 22.9046 47.8191 22.9046Z" fill="#FF7436"/>
<path d="M30.6615 44.3696C36.2736 44.3696 40.8231 39.8221 40.8231 34.2126C40.8231 28.603 36.2736 24.0555 30.6615 24.0555C25.0495 24.0555 20.5 28.603 20.5 34.2126C20.5 39.8221 25.0495 44.3696 30.6615 44.3696Z" fill="#FF7436"/>
<path d="M47.8484 75C56.4625 75 63.4456 68.02 63.4456 59.4097C63.4456 50.7995 56.4625 43.8195 47.8484 43.8195C39.2343 43.8195 32.2512 50.7995 32.2512 59.4097C32.2512 68.02 39.2343 75 47.8484 75Z" fill="#FF7436"/>
</g>
<defs>
<clipPath id="clip0_71_102">
<rect width="82" height="82" fill="white" transform="translate(0.5)"/>
</clipPath>
</defs>
</svg>
